<svg width="171" height="178" viewBox="0 0 171 178" fill="none" xmlns="http://www.w3.org/2000/svg">
<path d="M167.803 114.045C166.934 113.041 165.873 112.221 164.682 111.632C163.492 111.043 162.196 110.697 160.871 110.615L155.643 104.603C157.514 98.4375 158.46 92.0285 158.45 85.5855C158.45 84.8513 158.436 84.1217 158.408 83.3968C157.935 68.9866 152.727 55.1335 143.588 43.9797C144.641 43.4021 145.629 42.713 146.535 41.9244L146.654 41.8121C150.093 38.3958 150.865 35.0006 150.914 32.6436C151.381 31.5632 151.551 30.3773 151.406 29.2091C151.26 28.0409 150.804 26.933 150.086 26.0004C150.443 24.7747 150.315 23.4583 149.728 22.3246C149.331 21.5984 148.742 20.9952 148.026 20.5808C147.309 20.1664 146.493 19.9567 145.665 19.9745C145.364 19.9743 145.064 19.9978 144.767 20.0447L144.374 19.708C144.03 14.2293 141.911 10.4131 139.006 7.91582C138.304 5.81133 135.947 3.43326 131.645 3.18774C130.481 1.12534 128.839 0.0239868 126.944 0.0239868C124.615 0.0239868 123.211 1.50414 122.355 3.09654C119.415 3.09654 117.036 4.2049 115.591 6.06387C111.591 8.44896 108.932 12.5878 108.083 18.0945V18.2629C108.011 19.1239 107.999 19.9888 108.048 20.8514C101.875 19.1582 95.5029 18.3017 89.1022 18.305C50.8533 18.305 19.7405 48.4693 19.7405 85.5644C19.7405 86.2659 19.7405 87.0235 19.7756 87.7461C19.8528 89.9698 20.0352 92.1795 20.3299 94.3542L12.45 99.6575C11.7443 99.5065 11.0245 99.4313 10.3028 99.433C8.3684 99.4279 6.47677 100.002 4.87177 101.082C-0.159319 104.463 -1.4013 111.842 2.06503 117.917C4.38059 121.986 8.3802 124.504 12.5201 124.504C14.4568 124.51 16.3507 123.936 17.9582 122.856C20.2247 121.29 21.8043 118.915 22.3718 116.22L26.0627 113.722C29.6863 121.31 34.6985 128.153 40.8402 133.898C48.6146 141.193 57.9635 146.603 68.1639 149.709V157.84C63.7432 159.355 60.726 162.855 60.726 166.903C60.726 172.438 66.1641 176.766 73.1037 176.766C80.0434 176.766 85.4745 172.438 85.4745 166.903C85.4745 166.777 85.4745 166.65 85.4745 166.524C85.4745 166.398 85.4745 166.342 85.4745 166.244V152.747C86.5621 152.803 87.6567 152.831 88.7513 152.838V167.085C88.7513 167.177 88.7513 167.268 88.7513 167.352C88.7513 167.436 88.7513 167.611 88.7513 167.738C88.7513 173.273 94.1894 177.601 101.129 177.601C108.069 177.601 113.5 173.273 113.5 167.738C113.5 163.69 110.483 160.19 106.062 158.674V150.818C122.488 146.835 136.904 137.014 146.619 123.186L147.251 123.887C147.161 126.652 148.101 129.352 149.889 131.463C150.847 132.567 152.034 133.448 153.366 134.047C154.699 134.645 156.147 134.946 157.608 134.929C159.274 134.895 160.917 134.53 162.44 133.855C163.964 133.181 165.339 132.211 166.484 131C171.228 126.125 171.824 118.668 167.803 114.045ZM89.1022 70.5524C97.7259 70.5524 104.743 77.2798 104.743 85.5574C104.743 85.9012 104.743 86.2589 104.701 86.5886C104.146 94.4243 97.2979 100.562 89.1022 100.562C80.4784 100.562 73.4686 93.8351 73.4686 85.5574C73.4686 85.2067 73.4686 84.8559 73.5107 84.5122C74.0721 76.7116 80.9205 70.5805 89.1022 70.5805V70.5524Z" fill="#724D38"/>
<path d="M125.505 41.0326L125.379 40.9628L125.512 40.9001L125.505 41.0326Z" fill="#E82A39"/>
<path d="M125.379 40.9632L125.126 41.0825V40.8229L125.379 40.9632Z" fill="#E82A39"/>
<path d="M81.4962 142.161H72.1146V161.052C67.9045 161.382 64.6768 163.858 64.6768 166.903C64.6768 170.158 68.4378 172.788 73.097 172.788C77.7562 172.788 81.5172 170.158 81.5172 166.903C81.5163 166.682 81.4975 166.461 81.4611 166.243H81.4962V142.161Z" fill="#FFF5D8"/>
<path d="M92.723 142.996H102.055V161.887C106.266 162.217 109.493 164.693 109.493 167.738C109.493 170.993 105.732 173.63 101.073 173.63C96.4139 173.63 92.6528 170.993 92.6528 167.738C92.6538 167.517 92.6726 167.296 92.709 167.078H92.723V142.996Z" fill="#FFF5D8"/>
<path d="M18.6951 113.884L34.7427 103.102L29.1292 93.2809L13.0817 104.042C12.1364 103.581 11.0882 103.372 10.0385 103.434C8.98873 103.497 7.9729 103.83 7.08925 104.4C3.82641 106.595 3.11771 111.758 5.50344 115.939C7.88917 120.12 12.4712 121.741 15.727 119.545C16.6218 118.891 17.3546 118.041 17.8691 117.059C18.3837 116.078 18.6663 114.991 18.6951 113.884Z" fill="#FFF5D8"/>
<path d="M151.334 122.582L138.381 107.69L146.142 99.7417L159.095 114.634C160.139 114.46 161.211 114.554 162.209 114.908C163.207 115.261 164.098 115.862 164.8 116.655C167.431 119.685 166.905 124.869 163.593 128.251C160.281 131.632 155.495 131.905 152.864 128.882C152.158 128.011 151.654 126.994 151.389 125.904C151.125 124.815 151.106 123.68 151.334 122.582Z" fill="#FFF5D8"/>
<path d="M120.608 80.675C114.412 80.675 111.872 84.0913 108.679 86.8973C107.977 96.7673 99.4869 104.568 89.109 104.568C78.275 104.568 69.4969 96.0728 69.4969 85.5855C69.4969 85.1365 69.4969 84.6946 69.546 84.2526C66.3393 87.0586 63.7992 90.4959 57.6173 90.4959C47.0921 90.4959 47.0921 80.675 36.6159 80.675C29.8586 80.675 27.4448 84.7366 23.7891 87.6338C24.9047 121.635 53.737 148.867 89.1371 148.867C125.253 148.867 154.527 120.534 154.527 85.5855C154.527 84.884 154.527 84.1825 154.492 83.5231C150.829 86.4273 148.416 90.4959 141.651 90.4959C131.112 90.4959 131.112 80.675 120.608 80.675Z" fill="#F9C574"/>
<path d="M89.1023 22.577C52.9936 22.577 23.7192 50.9105 23.7192 85.859C23.7192 86.5605 23.7192 87.262 23.7543 87.9074C27.4101 85.0102 29.8239 80.9485 36.5811 80.9485C47.1064 80.9485 47.1064 90.7695 57.5826 90.7695C63.7925 90.7695 66.3326 87.3321 69.5113 84.5262C70.213 74.6631 78.7034 66.8695 89.0743 66.8695C99.9083 66.8695 108.721 75.3716 108.721 85.859C108.721 86.3009 108.721 86.7359 108.672 87.1708C111.872 84.3648 114.412 80.9485 120.601 80.9485C131.126 80.9485 131.126 90.7695 141.61 90.7695C148.374 90.7695 150.788 86.6938 154.45 83.7966C153.328 49.8021 124.502 22.577 89.1023 22.577Z" fill="#F174A4"/>
<path d="M62.1365 54.846C61.7855 54.8458 61.4429 54.7386 61.1544 54.5387C60.8659 54.3389 60.6452 54.0559 60.5217 53.7274C60.3982 53.399 60.3778 53.0407 60.4632 52.7004C60.5486 52.36 60.7358 52.0538 60.9997 51.8225L65.9607 47.4662L60.6699 44.2393C60.4663 44.1263 60.2876 43.9732 60.1447 43.7892C60.0017 43.6053 59.8976 43.3943 59.8384 43.169C59.7792 42.9438 59.7662 42.7089 59.8003 42.4784C59.8343 42.248 59.9147 42.0269 60.0365 41.8284C60.1583 41.6298 60.319 41.458 60.509 41.3232C60.6991 41.1884 60.9144 41.0935 61.1421 41.0441C61.3697 40.9948 61.6051 40.992 61.8338 41.036C62.0626 41.08 62.2801 41.1698 62.4733 41.3001L69.7638 45.7686C69.9938 45.9106 70.1873 46.1045 70.329 46.3346C70.4707 46.5648 70.5565 46.8249 70.5797 47.0941C70.6029 47.3634 70.5627 47.6343 70.4625 47.8853C70.3623 48.1362 70.2047 48.3603 70.0024 48.5395L63.2521 54.418C62.9428 54.6884 62.5473 54.8401 62.1365 54.846Z" fill="#724D38"/>
<path d="M117.078 47.6485C117.169 49.4981 116.527 51.309 115.293 52.6899C114.059 54.0707 112.331 54.9107 110.482 55.0283C109.573 55.087 108.661 54.9645 107.799 54.6676C106.937 54.3708 106.143 53.9057 105.463 53.2993C104.782 52.6929 104.229 51.9573 103.836 51.1354C103.442 50.3134 103.216 49.4214 103.171 48.5114C103.073 46.6606 103.712 44.8464 104.948 43.465C106.184 42.0836 107.916 41.2473 109.767 41.1386C110.676 41.0789 111.588 41.2005 112.45 41.4966C113.311 41.7926 114.106 42.257 114.786 42.8629C115.467 43.4687 116.02 44.2039 116.413 45.0255C116.807 45.8471 117.033 46.7387 117.078 47.6485Z" fill="#724D38"/>
<path d="M85.3271 62.85C83.0794 62.893 80.8486 62.4552 78.784 61.566C76.7195 60.6767 74.8689 59.3566 73.3563 57.694C73.1055 57.3424 72.9958 56.9096 73.0486 56.481C73.1015 56.0524 73.3132 55.6592 73.6419 55.379C73.9706 55.0988 74.3925 54.9521 74.8241 54.9677C75.2558 54.9833 75.666 55.1601 75.9736 55.4633C78.3032 58.164 82.1274 59.6722 86.1691 59.3987C90.2108 59.1251 93.8876 57.2942 95.8734 54.2988C96.0015 54.1118 96.1652 53.9518 96.3551 53.828C96.545 53.7043 96.7574 53.6191 96.9803 53.5774C97.2031 53.5357 97.432 53.5383 97.6538 53.5851C97.8756 53.6318 98.0861 53.7218 98.2732 53.8498C98.4602 53.9779 98.6202 54.1415 98.744 54.3314C98.8678 54.5212 98.953 54.7336 98.9947 54.9564C99.0364 55.1792 99.0338 55.408 98.9871 55.6298C98.9403 55.8515 98.8503 56.0619 98.7222 56.2489C96.0979 60.0861 91.4808 62.5624 86.3656 62.85C86.0217 62.836 85.706 62.85 85.3271 62.85Z" fill="#724D38"/>
<path d="M86.064 63.0814C86.064 63.0814 88.8356 71.8712 94.7578 70.1525C100.68 68.4339 98.8627 63.1376 94.1404 58.8234" fill="#EA5249"/>
<path d="M93.2493 72.1027C88.4427 72.1027 85.4185 66.7783 84.4151 63.6006C84.3081 63.1728 84.3682 62.7203 84.5833 62.3353C84.7984 61.9503 85.1522 61.6618 85.5727 61.5285C85.9932 61.3952 86.4486 61.4273 86.8463 61.618C87.244 61.8088 87.5539 62.144 87.713 62.5553C87.713 62.6325 90.0566 69.7246 94.2738 68.497C95.6771 68.0831 96.5191 67.4588 96.7086 66.631C97.0735 65.0737 95.607 62.5062 92.9686 60.0931C92.675 59.7739 92.5124 59.356 92.513 58.9224C92.5136 58.4888 92.6775 58.0714 92.972 57.7531C93.2665 57.4348 93.67 57.239 94.1024 57.2046C94.5347 57.1703 94.9641 57.2999 95.3052 57.5677C99.0101 60.9559 100.75 64.5827 100.077 67.4377C99.7329 68.9039 98.6172 70.854 95.2421 71.8361C94.5933 72.0163 93.9227 72.106 93.2493 72.1027Z" fill="#724D38"/>
<path d="M126.404 40.2337L126.306 40.1916C126.291 40.1291 126.279 40.0659 126.271 40.0022C123.962 28.203 131.933 22.4648 131.933 22.4648C140.01 17.1404 144.865 24.9972 144.865 24.9972L142.36 27.1017L144.851 25.1024C144.851 25.1024 151.538 31.2124 144.69 38.0099C144.648 37.9748 137.434 44.597 126.404 40.2337Z" fill="#E83D69"/>
<path d="M126.306 40.2962V40.1916L126.403 40.2334L126.306 40.2962Z" fill="#E82A39"/>
<path d="M126.284 40.1917L126.102 40.1215L126.249 40.0023C126.258 40.066 126.269 40.1292 126.284 40.1917Z" fill="#E82A39"/>
<path d="M146.177 25.8109C146.177 25.8109 149.23 21.146 144.22 23.7485C144.22 23.7485 142.276 20.0516 139.799 21.2582L139.862 23.012L137.483 24.6464C138.095 25.6111 138.979 26.3728 140.024 26.8351L139.322 29.5499C140.262 29.8502 141.273 29.8502 142.213 29.5499L143.434 32.0613C144.001 31.8792 144.503 31.5351 144.877 31.0714C145.251 30.6076 145.481 30.0446 145.539 29.4517L148.086 29.9989C148.086 29.9989 149.181 28.196 146.177 25.8109Z" fill="#79A379"/>
<path d="M134.922 26.548C134.38 26.8096 133.759 26.8596 133.182 26.6883C133.285 26.0958 133.606 25.5631 134.08 25.1937C134.622 24.9281 135.244 24.8779 135.82 25.0534C135.72 25.6471 135.4 26.181 134.922 26.548Z" fill="#F4EA97"/>
<path d="M131.554 32.6931C131.012 32.9547 130.391 33.0047 129.814 32.8334C129.919 32.2379 130.241 31.7026 130.719 31.3318C131.262 31.0706 131.883 31.023 132.459 31.1985C132.355 31.7923 132.032 32.3254 131.554 32.6931Z" fill="#F4EA97"/>
<path d="M137.862 32.8614C137.321 33.127 136.699 33.1772 136.122 33.0017C136.222 32.408 136.543 31.8741 137.02 31.5071C137.563 31.2455 138.183 31.1955 138.76 31.3668C138.66 31.9605 138.339 32.4944 137.862 32.8614Z" fill="#F4EA97"/>
<path d="M130.095 38.242C129.552 38.5032 128.931 38.5508 128.354 38.3753C128.375 38.0722 128.468 37.7785 128.625 37.5185C128.783 37.2586 129 37.0399 129.258 36.8807C129.517 36.7214 129.81 36.6263 130.113 36.6031C130.416 36.5799 130.72 36.6294 131 36.7474C130.895 37.3411 130.572 37.8743 130.095 38.242Z" fill="#F4EA97"/>
<path d="M136.613 39.1468C136.072 39.4118 135.45 39.4619 134.873 39.2871C134.978 38.6934 135.3 38.1602 135.778 37.7925C136.32 37.5269 136.942 37.4767 137.518 37.6522C137.414 38.246 137.091 38.7791 136.613 39.1468Z" fill="#F4EA97"/>
<path d="M143.244 36.0743C142.701 36.3356 142.08 36.3832 141.504 36.2076C141.524 35.9048 141.615 35.6111 141.772 35.351C141.928 35.091 142.145 34.8721 142.403 34.7128C142.661 34.5534 142.954 34.4582 143.256 34.435C143.559 34.4119 143.863 34.4615 144.142 34.5797C144.042 35.1734 143.721 35.7073 143.244 36.0743Z" fill="#F4EA97"/>
<path d="M48.5937 107.486C48.3468 107.658 48.0685 107.779 47.7748 107.843C47.481 107.907 47.1775 107.912 46.8816 107.859C46.5857 107.805 46.3033 107.694 46.0505 107.531C45.7976 107.369 45.5793 107.158 45.4081 106.911L39.5981 98.542C39.4265 98.2952 39.3053 98.017 39.2413 97.7233C39.1774 97.4296 39.1719 97.1262 39.2254 96.8304C39.2788 96.5346 39.3901 96.2522 39.5528 95.9994C39.7154 95.7467 39.9264 95.5284 40.1735 95.3572C40.4204 95.1857 40.6987 95.0644 40.9924 95.0005C41.2862 94.9366 41.5897 94.9312 41.8856 94.9846C42.1815 95.038 42.4639 95.1492 42.7167 95.3119C42.9696 95.4745 43.1879 95.6854 43.3591 95.9324L49.1691 104.301C49.3407 104.548 49.4619 104.826 49.5259 105.12C49.5898 105.414 49.5952 105.717 49.5418 106.013C49.4884 106.309 49.3771 106.591 49.2144 106.844C49.0518 107.097 48.8408 107.315 48.5937 107.486Z" fill="#F491A4"/>
<path d="M62.9225 117.7C62.6452 117.585 62.3934 117.416 62.1815 117.203C61.9696 116.991 61.8017 116.738 61.6877 116.461C61.5736 116.183 61.5154 115.886 61.5166 115.586C61.5178 115.285 61.5783 114.988 61.6945 114.712L65.6099 105.305C65.8456 104.745 66.2927 104.302 66.8538 104.071C67.415 103.839 68.0448 103.839 68.6061 104.07C69.1655 104.306 69.6091 104.752 69.8404 105.313C70.0717 105.874 70.0719 106.504 69.8411 107.065L65.9187 116.493C65.6807 117.05 65.2316 117.49 64.67 117.716C64.1084 117.942 63.4799 117.936 62.9225 117.7Z" fill="#FAA343"/>
<path d="M138.262 111.962C137.965 112.027 137.658 112.033 137.359 111.979C137.06 111.924 136.775 111.811 136.52 111.645C136.265 111.479 136.046 111.264 135.875 111.013C135.704 110.761 135.586 110.478 135.526 110.18L133.421 100.205C133.359 99.9103 133.356 99.6067 133.412 99.3112C133.468 99.0157 133.581 98.7342 133.746 98.4827C133.911 98.2312 134.124 98.0146 134.373 97.8455C134.622 97.6763 134.901 97.5579 135.196 97.4969C135.49 97.4353 135.794 97.4324 136.09 97.4883C136.385 97.5442 136.667 97.6578 136.918 97.8227C137.17 97.9875 137.386 98.2003 137.556 98.449C137.725 98.6976 137.843 98.9772 137.904 99.2717L140.009 109.247C140.137 109.839 140.024 110.456 139.697 110.965C139.369 111.474 138.853 111.832 138.262 111.962Z" fill="#FAA343"/>
<path d="M109.69 137.931C109.166 137.625 108.785 137.124 108.63 136.538C108.474 135.951 108.558 135.327 108.862 134.802L113.956 125.978C114.261 125.453 114.761 125.07 115.348 124.914C115.935 124.757 116.559 124.84 117.085 125.143C117.346 125.292 117.574 125.492 117.757 125.73C117.94 125.968 118.074 126.24 118.152 126.53C118.229 126.82 118.249 127.123 118.209 127.42C118.169 127.718 118.071 128.005 117.92 128.264L112.826 137.089C112.676 137.351 112.475 137.58 112.236 137.764C111.997 137.947 111.724 138.082 111.432 138.16C111.141 138.239 110.837 138.259 110.538 138.219C110.239 138.18 109.951 138.082 109.69 137.931Z" fill="#F491A4"/>
<path d="M106.897 110.79C106.768 110.519 106.693 110.225 106.678 109.925C106.662 109.625 106.707 109.325 106.808 109.042C106.909 108.759 107.065 108.499 107.267 108.276C107.469 108.054 107.713 107.874 107.985 107.746L117.198 103.382C117.469 103.253 117.763 103.179 118.063 103.163C118.363 103.148 118.663 103.192 118.946 103.293C119.229 103.394 119.49 103.55 119.712 103.752C119.935 103.954 120.115 104.198 120.243 104.47C120.372 104.741 120.447 105.035 120.462 105.335C120.478 105.635 120.433 105.935 120.332 106.218C120.231 106.501 120.075 106.761 119.873 106.984C119.671 107.206 119.427 107.386 119.155 107.514L109.942 111.878C109.394 112.137 108.766 112.168 108.194 111.964C107.623 111.76 107.157 111.338 106.897 110.79Z" fill="#F4F095"/>
<path d="M94.2245 129.499C93.7387 129.862 93.1288 130.016 92.5288 129.93C91.9289 129.843 91.3879 129.521 91.0248 129.036L84.9272 120.871C84.7468 120.631 84.6156 120.357 84.5412 120.066C84.4668 119.775 84.4507 119.472 84.4937 119.175C84.5368 118.878 84.6381 118.592 84.792 118.334C84.9458 118.076 85.1492 117.851 85.3903 117.672C85.8761 117.309 86.486 117.155 87.086 117.241C87.6859 117.328 88.2268 117.65 88.59 118.135L94.6946 126.3C95.0564 126.787 95.2101 127.397 95.122 127.997C95.0338 128.597 94.711 129.137 94.2245 129.499Z" fill="#F0587B"/>
<path d="M69.2022 134.101C69.1286 134.395 68.9973 134.672 68.816 134.915C68.6347 135.158 68.4069 135.363 68.1459 135.518C67.8849 135.672 67.5958 135.774 67.2953 135.816C66.9948 135.858 66.689 135.84 66.3955 135.763L56.5087 133.28C56.2144 133.207 55.9376 133.075 55.6943 132.894C55.451 132.713 55.2461 132.485 55.0915 132.224C54.9368 131.963 54.8355 131.674 54.7933 131.374C54.7511 131.073 54.7689 130.768 54.8457 130.474C54.9185 130.179 55.0492 129.902 55.2303 129.658C55.4114 129.415 55.6393 129.21 55.9005 129.055C56.1618 128.9 56.4513 128.799 56.752 128.757C57.0528 128.715 57.3589 128.734 57.6525 128.812L67.5392 131.295C67.8331 131.369 68.1093 131.501 68.3521 131.683C68.5949 131.864 68.7994 132.092 68.9539 132.352C69.1085 132.613 69.2099 132.902 69.2525 133.202C69.2952 133.502 69.2781 133.808 69.2022 134.101Z" fill="#F4EA97"/>
<path d="M126.06 40.2407L125.92 40.3039L125.688 40.1636C111.079 31.5211 112.56 18.0594 112.56 18.0594C114.588 4.87829 127.456 7.25637 127.456 7.25637L127.267 11.7389L127.513 7.33353C127.513 7.33353 140.269 6.21815 140.964 19.5326C140.964 19.5326 141.097 33.0574 126.06 40.2407Z" fill="#E83D69"/>
<path d="M129.021 7.31253C129.021 7.31253 127 -0.137359 125.008 7.38268C125.008 7.38268 119.275 5.92357 118.201 9.56433L120.089 11.1357L119.562 15.0851C119.562 15.0851 122.271 15.5832 124.264 14.5379L126.474 17.7718C127.673 17.1078 128.631 16.0814 129.211 14.8396L133.014 15.9479C133.36 15.1943 133.474 14.3545 133.34 13.5359C133.206 12.7174 132.831 11.9574 132.263 11.3531L135.245 9.24866C135.245 9.24866 134.382 6.48476 129.021 7.31253Z" fill="#79A379"/>
<path d="M119.169 19.4554C118.927 20.2563 118.391 20.9356 117.668 21.3564C117.149 20.704 116.898 19.879 116.966 19.0485C117.205 18.2463 117.742 17.5661 118.467 17.1475C118.986 17.7999 119.237 18.6249 119.169 19.4554Z" fill="#F4EA97"/>
<path d="M122.46 28.6099C122.217 29.4081 121.68 30.0848 120.959 30.5039C120.439 29.8522 120.188 29.0266 120.257 28.196C120.498 27.3964 121.035 26.7189 121.758 26.3019C122.278 26.9537 122.529 27.7793 122.46 28.6099Z" fill="#F4EA97"/>
<path d="M128.6 22.3526C128.358 23.1497 127.825 23.8262 127.105 24.2466C126.586 23.5949 126.335 22.7693 126.404 21.9387C126.645 21.1391 127.182 20.4616 127.905 20.0447C128.419 20.6991 128.667 21.5233 128.6 22.3526Z" fill="#F4EA97"/>
<path d="M126.923 35.2601C126.684 36.0623 126.147 36.7426 125.421 37.1612C124.903 36.5088 124.652 35.6837 124.72 34.8533C124.962 34.0524 125.498 33.373 126.221 32.9522C126.74 33.6046 126.991 34.4297 126.923 35.2601Z" fill="#F4EA97"/>
<path d="M134.045 29.5079C133.802 30.3061 133.265 30.9828 132.543 31.4019C132.024 30.7502 131.773 29.9246 131.842 29.094C132.083 28.2944 132.62 27.6169 133.343 27.2C133.86 27.8534 134.11 28.6777 134.045 29.5079Z" fill="#F4EA97"/>
<path d="M137.063 19.8693C136.822 20.6689 136.285 21.3464 135.561 21.7634C135.041 21.1116 134.79 20.286 134.859 19.4554C135.098 18.6545 135.635 17.9761 136.361 17.5614C136.881 18.2132 137.132 19.0387 137.063 19.8693Z" fill="#F4EA97"/>
</svg>
