<svg width="79" height="60" viewBox="0 0 79 60" fill="none" xmlns="http://www.w3.org/2000/svg">
<path d="M22.5807 43.6608C22.3389 43.6614 22.0996 43.6111 21.8784 43.5132C21.6573 43.4153 21.4592 43.2721 21.2969 43.0928C20.981 42.7522 20.8132 42.3002 20.8303 41.836C20.8474 41.3719 21.048 40.9335 21.3881 40.617L25.0431 37.2366L21.4653 34.2909C21.1034 33.9952 20.8739 33.5678 20.8272 33.1029C20.7805 32.6379 20.9204 32.1735 21.2163 31.8117C21.5121 31.4499 21.9396 31.2204 22.4046 31.1738C22.8697 31.1271 23.3343 31.267 23.6962 31.5627L28.8244 35.7708C29.0172 35.9304 29.1738 36.1294 29.2837 36.3543C29.3936 36.5793 29.4542 36.8251 29.4615 37.0753C29.4688 37.3256 29.4226 37.5745 29.326 37.8055C29.2295 38.0365 29.0848 38.2442 28.9015 38.4148L23.7733 43.1629C23.4549 43.4764 23.0276 43.6548 22.5807 43.6608Z" fill="#724D38"/>
<path d="M16.4 25.3137C17.319 27.053 14.3796 28.9256 13.3974 27.067C13.187 26.6603 12.9695 26.2535 12.752 25.8467C11.8541 26.4358 10.9515 27.0203 10.0441 27.6L10.6545 28.5048C10.9095 28.8604 11.024 29.2978 10.9761 29.7327C10.9282 30.1677 10.7212 30.5696 10.3949 30.8613C9.84771 31.3873 8.62003 31.7169 8.1009 30.9454C5.17148 26.7972 2.51863 22.4606 0.159591 17.9636C-0.717321 16.2033 2.26418 14.3307 3.16214 16.2103C4.70887 19.2526 6.43778 22.1989 8.33942 25.0331L11.2858 23.1465C10.603 21.9028 9.90149 20.6732 9.18126 19.4575C8.62003 18.499 8.04244 17.5475 7.44848 16.603C7.44848 16.5469 7.20295 16.2103 7.1819 16.1752C7.05562 15.9859 6.93636 15.7965 6.81009 15.6142C6.5856 15.2845 6.36111 14.9549 6.10856 14.6323C5.85239 14.2752 5.73784 13.8359 5.78709 13.3993C5.83634 12.9626 6.04588 12.5598 6.37514 12.2688C6.92935 11.7357 8.12896 11.4272 8.66213 12.1846C11.5293 16.3849 14.1143 20.7709 16.4 25.3137Z" fill="#E83D69"/>
<path d="M25.5063 20.8602C25.322 21.9041 24.8075 22.8613 24.0384 23.591C23.2694 24.3207 22.2863 24.7844 21.234 24.914C20.415 24.9541 19.5985 24.7951 18.8544 24.4507C18.1103 24.1062 17.4608 23.5865 16.9617 22.9362C15.8354 21.5116 14.9903 19.8861 14.4712 18.146C13.9023 16.5251 13.6359 14.8135 13.6855 13.0964C13.7029 11.4167 14.3228 9.79908 15.4323 8.53767C16.7582 7.135 19.0172 6.43366 20.6447 7.68905C22.7072 9.26707 22.4266 12.5984 21.9706 14.8427C21.5707 16.7995 20.778 18.9035 19.3118 20.243C19.396 20.3623 19.4732 20.4675 19.5503 20.5586C19.73 20.7709 19.9246 20.9701 20.1326 21.1548L20.4413 21.4002L20.5184 21.4423C20.6455 21.4913 20.7696 21.5475 20.8902 21.6106L21.1498 21.6597H21.1989H21.234C21.3286 21.6396 21.4249 21.6278 21.5216 21.6247H21.5848L21.683 21.5756L21.7882 21.5125L21.8303 21.4493C21.8303 21.4493 21.9776 21.267 21.9425 21.3301C21.9969 21.2467 22.0461 21.16 22.0899 21.0706C22.1811 20.8335 22.2538 20.5896 22.3073 20.3412C22.4467 19.9089 22.7342 19.5396 23.1192 19.2983C23.5042 19.0571 23.962 18.9595 24.4119 19.0227C24.6083 19.0648 24.7938 19.1469 24.9569 19.2639C25.1201 19.3809 25.2573 19.5303 25.36 19.7028C25.4627 19.8753 25.5288 20.0671 25.5539 20.2663C25.5791 20.4654 25.5629 20.6676 25.5063 20.8602ZM17.9999 16.7363C18.002 16.7083 18.002 16.6802 17.9999 16.6522L18.1122 16.3787C18.2034 16.1402 18.2876 15.9017 18.3647 15.6773C18.4419 15.4529 18.5401 15.0812 18.6103 14.7726C18.6103 14.6604 18.7365 14.1764 18.7295 14.2185C18.8323 13.7233 18.9026 13.222 18.94 12.7177C18.94 12.5002 18.94 12.2758 18.94 12.0584C18.94 12.0023 18.94 11.8129 18.94 11.848V11.7077C18.909 11.4947 18.8645 11.2839 18.8067 11.0765C18.7851 10.9835 18.7569 10.8921 18.7225 10.803C18.641 10.6808 18.5661 10.5544 18.498 10.4243C18.4502 10.391 18.4056 10.3535 18.3647 10.3121C18.1823 10.3752 18.2595 10.3121 18.042 10.4103L17.9368 10.4804L17.7825 10.6277L17.7404 10.6697V10.7118C17.6632 10.8311 17.5931 10.9433 17.5299 11.0625L17.4808 11.1537L17.4387 11.2869C17.4036 11.3991 17.3615 11.5114 17.3335 11.6236C17.2626 11.8368 17.2201 12.0585 17.2072 12.2828C17.1476 12.8681 17.1476 13.4579 17.2072 14.0432C17.3175 15.1189 17.553 16.1781 17.9087 17.1992L18.0982 16.8205L17.9999 16.7363Z" fill="#E83D69"/>
<path d="M35.2918 19.1279C34.9177 20.1161 34.2322 20.9557 33.3387 21.52C32.4452 22.0842 31.3923 22.3426 30.339 22.2559C29.5239 22.1277 28.7514 21.8061 28.0861 21.318C27.4209 20.8299 26.8824 20.1895 26.5157 19.4505C25.6773 17.8308 25.1514 16.0678 24.9653 14.2536C24.7086 12.5534 24.7657 10.8205 25.1337 9.14083C25.4504 7.50106 26.3499 6.03125 27.6662 5.00293C29.2306 3.90182 31.5667 3.68441 32.9698 5.23437C34.6955 7.19111 33.8046 10.3822 32.9347 12.5143C32.1841 14.3588 31.0125 16.2594 29.3288 17.2834C29.3788 17.4066 29.4374 17.5261 29.5042 17.6411C29.6413 17.8858 29.7961 18.1202 29.9672 18.3424C30.0455 18.4477 30.1298 18.5484 30.2198 18.644L30.2899 18.7001C30.4052 18.772 30.5153 18.8516 30.6197 18.9385L30.8722 19.0437H30.9143C31.01 19.0362 31.1062 19.0362 31.2019 19.0437H31.2651H31.3703L31.4896 19.0017L31.5457 18.9526C31.5457 18.9526 31.7211 18.7983 31.672 18.8544C31.743 18.7847 31.8087 18.7096 31.8684 18.63C32.0008 18.4042 32.118 18.1699 32.2191 17.9286C32.4365 17.5318 32.7884 17.2254 33.2114 17.0647C33.6345 16.904 34.1011 16.8995 34.5272 17.0519C34.7225 17.1273 34.8996 17.2435 35.0465 17.3926C35.1934 17.5418 35.3068 17.7206 35.3792 17.917C35.4515 18.1135 35.4812 18.3231 35.4661 18.5319C35.4511 18.7407 35.3916 18.9439 35.2918 19.1279ZM28.6905 13.5873C28.7074 13.5633 28.7216 13.5374 28.7325 13.5102C28.7887 13.426 28.8448 13.3489 28.8939 13.2647C29.0272 13.0473 29.1535 12.8299 29.2727 12.6054C29.392 12.381 29.5604 12.0514 29.6866 11.7709C29.7357 11.6586 29.9181 11.2028 29.9041 11.2448C30.0752 10.7871 30.2159 10.3185 30.325 9.84217C30.3741 9.63177 30.4092 9.41435 30.4443 9.19694C30.4443 9.14083 30.4443 8.95147 30.4443 8.98654C30.4443 9.0216 30.4443 8.89536 30.4443 8.84627C30.4443 8.62885 30.4443 8.41845 30.4443 8.20104C30.4443 8.10285 30.4443 8.01167 30.4443 7.91349C30.3856 7.776 30.334 7.63554 30.2899 7.49268C30.2515 7.44853 30.2164 7.40165 30.1847 7.35241C29.9953 7.35241 30.0865 7.35241 29.848 7.35241L29.7357 7.40151L29.5604 7.51372L29.5042 7.54879L29.2306 7.85037C29.2151 7.88013 29.1936 7.90639 29.1675 7.92751C29.1507 7.97161 29.1296 8.0139 29.1044 8.05375L28.936 8.36234C28.8284 8.55937 28.746 8.76906 28.6905 8.98654C28.5145 9.54566 28.397 10.1215 28.3397 10.7048C28.256 11.7861 28.2983 12.8735 28.466 13.945C28.5572 13.8398 28.6413 13.7276 28.7255 13.6154L28.6905 13.5873Z" fill="#E83D69"/>
<path d="M40.904 7.99765C40.2024 10.3541 36.1055 9.47046 36.8702 6.84044C37.0443 6.23954 37.1663 5.62476 37.235 5.00293C36.7218 4.82474 36.2874 4.47234 36.0073 4.00703C36.0073 3.95092 35.9441 3.8878 35.9091 3.82468C35.7468 3.63199 35.6258 3.40813 35.5534 3.16689C35.481 2.92565 35.4588 2.67214 35.4881 2.422C35.543 2.02011 35.6891 1.6361 35.9152 1.29937C36.1414 0.962637 36.4416 0.682116 36.793 0.479288C37.272 0.170397 37.8295 0.00491967 38.3995 0.00237725C39.0528 -0.0391075 39.6967 0.174625 40.1954 0.598516C42.2158 2.18354 41.5073 5.90064 40.904 7.99765Z" fill="#E83D69"/>
<path d="M51.9114 20.222C51.7771 20.8172 51.5083 21.3738 51.1257 21.8491C50.8224 22.1725 50.4376 22.4082 50.0117 22.5316C49.5859 22.655 49.1346 22.6615 48.7054 22.5504C47.4567 22.2208 47.0428 21.0215 46.713 19.8783C46.3553 18.6159 46.0746 17.3254 45.8151 16.035C45.6607 17.3956 45.5134 18.7632 45.3661 20.1238C45.341 20.5561 45.1508 20.9622 44.8349 21.2584C44.5191 21.5546 44.1015 21.7184 43.6684 21.7158C42.9248 21.7158 41.7883 21.1477 41.8935 20.222C42.3274 15.1134 43.096 10.0389 44.1946 5.03097C44.6225 3.24957 47.5829 3.62829 47.618 5.33254C47.6219 5.40496 47.6219 5.47754 47.618 5.54996C47.9197 7.97659 48.3195 10.3892 48.7264 12.7948C48.9088 13.8188 49.1123 14.8988 49.3508 16.035C49.954 12.9049 50.3849 9.74416 50.6416 6.5669C50.6668 6.13464 50.8569 5.72852 51.1728 5.43229C51.4887 5.13607 51.9062 4.97233 52.3393 4.97486C53.0899 4.97486 54.1984 5.54295 54.1142 6.47573C53.9037 8.90236 53.581 11.322 53.2162 13.7276C52.9438 15.9219 52.5076 18.0927 51.9114 20.222Z" fill="#724D38"/>
<path d="M61.7324 25.7205C61.08 27.1232 58.9263 26.5621 58.5124 25.2857L58.2669 25.3277C57.3636 25.4259 56.4536 25.218 55.6827 24.7372C54.9118 24.2565 54.3247 23.5309 54.0156 22.6767C53.4193 20.8181 53.9314 18.7141 54.4646 16.9047C55.4377 13.8257 56.6094 10.813 57.9722 7.88543C58.3441 7.0298 59.5507 6.91057 60.2663 7.24721C60.6551 7.41686 60.9614 7.73276 61.119 8.12655C61.2765 8.52033 61.2726 8.96031 61.1081 9.35123C59.8028 12.1205 58.6917 14.9772 57.7828 17.9006C57.5267 18.7626 57.3436 19.6448 57.2356 20.5376C57.2356 20.6498 57.2356 20.769 57.2356 20.8883C57.2356 21.0285 57.2356 21.1618 57.2356 21.3021C57.2356 21.4423 57.2356 21.6106 57.2988 21.772V21.807C57.2988 21.8561 57.3479 21.9122 57.3689 21.9683L57.3058 21.9052L57.397 22.0385H57.4391C57.4391 22.0385 57.4391 22.0385 57.4812 22.0385H57.5724H57.6145H57.7337H57.7898H57.8811L58.2599 21.807C58.302 21.772 58.4142 21.6878 58.4774 21.6247C58.7693 21.349 59.0369 21.0487 59.2771 20.727L59.5788 20.2781C59.7191 20.0537 59.8594 19.8292 59.9927 19.5768C60.2522 19.1209 60.4907 18.658 60.7293 18.1741C61.9556 15.5755 63.049 12.9164 64.0054 10.2069C64.3281 9.33019 65.6259 9.24603 66.3064 9.56865C66.4388 9.63406 66.5636 9.71404 66.6782 9.8071C66.9528 9.95626 67.1729 10.1889 67.3065 10.4713C67.4402 10.7537 67.4806 11.0712 67.4218 11.3781C65.8457 16.2798 63.9451 21.0712 61.7324 25.7205ZM57.5233 22.2629C57.5233 22.2629 57.5233 22.2629 57.4601 22.1998H57.418C57.4318 22.2033 57.4463 22.2033 57.4601 22.1998C57.4601 22.2419 57.5233 22.2699 57.5233 22.2629Z" fill="#724D38"/>
<path d="M78.4923 19.2892C78.1885 19.6082 77.7753 19.8006 77.3356 19.8279C76.8959 19.8552 76.4621 19.7154 76.1211 19.4365L74.8794 18.5318C72.4195 22.076 70.1549 25.7518 68.0957 29.5428C67.9002 29.9188 67.5674 30.2051 67.1663 30.3422C66.7653 30.4794 66.3268 30.4568 65.942 30.2792C65.2404 29.9847 64.4547 28.9607 64.9107 28.1752C67.0793 24.1827 69.4585 20.3082 72.0382 16.568C71.4349 16.1683 70.8386 15.7755 70.2353 15.3898C70.0586 15.2714 69.9073 15.1191 69.7902 14.9416C69.6732 14.764 69.5927 14.565 69.5535 14.356C69.5143 14.147 69.5172 13.9323 69.562 13.7245C69.6068 13.5166 69.6926 13.3198 69.8144 13.1455C70.1219 12.8304 70.5356 12.6408 70.9751 12.6136C71.4146 12.5864 71.8485 12.7235 72.1926 12.9982C74.206 14.2887 76.1913 15.6353 78.1065 17.073C78.278 17.1927 78.4241 17.3452 78.5364 17.5216C78.6487 17.698 78.725 17.8948 78.7608 18.1008C78.7967 18.3068 78.7914 18.5179 78.7454 18.7219C78.6993 18.9258 78.6133 19.1186 78.4923 19.2892Z" fill="#724D38"/>
<path d="M53.2728 46.5853C55.9811 46.5853 58.1765 43.9288 58.1765 40.6519C58.1765 37.3751 55.9811 34.7186 53.2728 34.7186C50.5646 34.7186 48.3691 37.3751 48.3691 40.6519C48.3691 43.9288 50.5646 46.5853 53.2728 46.5853Z" fill="#724D38"/>
<path d="M40.3008 51.5719C40.3008 51.5719 41.9704 59.2866 46.355 58.1084C50.7395 56.9301 49.6171 52.2662 46.355 48.2896" fill="#E83D69"/>
<path d="M45.4577 59.981C44.5581 59.9875 43.6742 59.7448 42.9041 59.2796C39.8455 57.4141 38.695 52.5257 38.5897 51.9717C38.4874 51.5169 38.57 51.0401 38.8193 50.6462C39.0686 50.2522 39.4642 49.9735 39.9191 49.8712C40.3741 49.7688 40.851 49.8514 41.245 50.1006C41.639 50.3499 41.9179 50.7454 42.0202 51.2002C42.3499 52.7221 43.3812 55.4082 44.7281 56.2568C44.8978 56.3693 45.0908 56.4416 45.2926 56.4684C45.4944 56.4951 45.6996 56.4755 45.8927 56.4111C47.1344 56.0815 47.2957 55.4994 47.3939 55.275C47.7307 54.2159 47.1203 51.9927 45.0017 49.4188C44.8411 49.2434 44.7178 49.0372 44.6394 48.8127C44.561 48.5882 44.5291 48.3501 44.5456 48.1129C44.5621 47.8757 44.6267 47.6443 44.7355 47.4329C44.8442 47.2214 44.9949 47.0343 45.1783 46.8828C45.3617 46.7314 45.5739 46.6188 45.8022 46.552C46.0305 46.4852 46.2699 46.4655 46.5061 46.494C46.7422 46.5226 46.97 46.599 47.1757 46.7183C47.3814 46.8377 47.5607 46.9977 47.7026 47.1885C50.4316 50.4988 51.533 53.8302 50.7332 56.3059C50.3544 57.5052 49.3302 59.1113 46.8117 59.7635C46.3724 59.8975 45.9168 59.9706 45.4577 59.981Z" fill="#724D38"/>
<path d="M38.9118 52.8413C37.0563 52.8206 35.2385 52.3152 33.6387 51.3753C32.039 50.4353 30.7128 49.0936 29.7919 47.4831C29.6625 47.2853 29.5744 47.0634 29.533 46.8308C29.4916 46.5981 29.4976 46.3594 29.5508 46.1292C29.6039 45.8989 29.7031 45.6818 29.8423 45.4908C29.9816 45.2998 30.158 45.1389 30.361 45.0178C30.564 44.8967 30.7893 44.8179 31.0236 44.7861C31.2578 44.7542 31.4961 44.7701 31.724 44.8327C31.952 44.8952 32.1649 45.0032 32.3501 45.1502C32.5352 45.2971 32.6887 45.4799 32.8014 45.6877C33.3983 46.7906 34.2821 47.7117 35.3596 48.3536C36.437 48.9956 37.668 49.3345 38.9223 49.3345C40.1766 49.3345 41.4075 48.9956 42.485 48.3536C43.5624 47.7117 44.4463 46.7906 45.0431 45.6877C45.1558 45.4799 45.3093 45.2971 45.4945 45.1502C45.6796 45.0032 45.8926 44.8952 46.1205 44.8327C46.3485 44.7701 46.5867 44.7542 46.821 44.7861C47.0552 44.8179 47.2806 44.8967 47.4836 45.0178C47.6866 45.1389 47.863 45.2998 48.0022 45.4908C48.1414 45.6818 48.2406 45.8989 48.2938 46.1292C48.3469 46.3594 48.353 46.5981 48.3115 46.8308C48.2701 47.0634 48.1821 47.2853 48.0527 47.4831C47.1299 49.0966 45.8005 50.4404 44.1967 51.3805C42.5929 52.3206 40.7708 52.8242 38.9118 52.8413Z" fill="#724D38"/>
</svg>
