<svg width="50" height="50" viewBox="0 0 50 50" fill="none" xmlns="http://www.w3.org/2000/svg">
<path d="M16.7497 14.3871C16.7497 14.6649 16.7497 14.9427 16.7507 15.2205C16.7516 15.9197 16.7398 16.6189 16.7653 17.3181C16.7771 17.4722 16.7851 17.6281 16.8239 17.7783C16.8669 17.9512 16.951 18.1166 17.0771 18.2441C17.1958 18.3687 17.3516 18.4515 17.5212 18.4803C17.6507 18.563 17.7617 18.6707 17.8699 18.7794L17.9998 18.9117V27.2503H22.2692L22.1856 17.7561C22.0996 17.5884 22.0155 17.4197 21.9343 17.2496C21.7793 16.9284 21.6248 16.6062 21.4368 16.3029C21.0116 15.6277 20.3971 15.0928 19.6699 14.7646C19.5541 14.7126 19.4384 14.663 19.3193 14.6196C18.8771 14.457 18.4141 14.3616 17.9502 14.2865C17.7943 14.261 17.6384 14.2383 17.4825 14.2123L16.7497 14.0933V14.3871ZM7.24704 14.8761L7.26594 19.0515C7.2735 20.5289 7.28153 22.0057 7.29145 23.483C7.29759 24.3948 7.30468 25.3066 7.31035 26.2189L7.31743 27.1685L7.98735 27.1851L8.03082 27.186L8.2009 27.1907L8.22263 27.1912L8.41397 27.1969C9.01964 27.2148 9.62531 27.2356 10.2314 27.2394H10.2532C10.3231 27.2394 10.3935 27.2361 10.4639 27.2333C10.6259 27.2252 10.7894 27.2007 10.9396 27.1374C11.002 27.1114 11.0615 27.0792 11.1168 27.041C11.3129 27.1544 11.5184 27.2531 11.7348 27.3211C11.8836 27.3698 12.0352 27.41 12.1883 27.4397C12.656 27.5309 13.1379 27.5333 13.608 27.4629C14.0464 27.3959 14.4741 27.2712 14.8798 27.092C15.0858 27.0037 15.2851 26.8983 15.4741 26.7774C16.0088 26.4315 16.467 25.9799 16.8206 25.4503C16.8891 25.3492 16.9548 25.2466 17.0119 25.1385C17.164 24.8536 17.268 24.5432 17.3237 24.2252C17.4541 23.5274 17.473 22.8126 17.4135 22.1063C17.3955 21.8722 17.3655 21.6391 17.3237 21.4081C17.2486 21.0055 17.1253 20.6087 16.9316 20.2459C16.8676 20.129 16.7992 20.0146 16.7266 19.9029C16.4204 19.4285 16.0467 18.9944 15.6022 18.6448C15.5281 18.5852 15.4509 18.5299 15.3707 18.4789C15.0201 18.2564 14.6289 18.1033 14.2283 17.9985C13.59 17.8273 12.922 17.7976 12.271 17.9115C12.0074 17.9592 11.748 18.0329 11.4995 18.1336V14.6248H7.24609L7.24704 14.8761ZM37.1644 17.8322C36.8766 17.8369 36.5899 17.8681 36.3074 17.9219C35.7629 18.0254 35.2393 18.2183 34.7577 18.4926C34.1554 18.844 33.6542 19.3451 33.3026 19.9473C33.194 20.1325 33.1009 20.3262 33.022 20.526C32.86 20.9314 32.7537 21.3575 32.6927 21.7893C32.5651 21.2274 32.3327 20.6947 32.0077 20.2189C31.7078 19.778 31.3394 19.3879 30.9163 19.0633C30.0043 18.3701 28.9021 17.9723 27.7576 17.9233C27.5559 17.9167 27.354 17.9214 27.1529 17.9375C26.184 18.0189 25.255 18.36 24.4637 18.9249C24.0281 19.2357 23.6458 19.6151 23.3318 20.0484C23.0311 20.4601 22.8071 20.9226 22.6703 21.4137C22.6155 21.6164 22.5782 21.8243 22.5593 22.0336C22.5262 22.4196 22.4955 22.807 22.5121 23.1944C22.5159 23.2997 22.5244 23.4051 22.5409 23.5095C22.5844 23.7896 22.6746 24.0603 22.7856 24.3207C22.8508 24.4752 22.9231 24.6263 22.9977 24.7766C23.4005 25.5121 23.9579 26.1516 24.6314 26.6512C25.029 26.9392 25.4727 27.1576 25.9434 27.297C26.4192 27.4416 26.9152 27.5144 27.4118 27.5304C27.6045 27.5356 27.7977 27.5304 27.99 27.5177C28.5805 27.4811 29.1615 27.351 29.7111 27.1322C29.7928 27.1 29.8729 27.0641 29.9511 27.0244C30.296 26.8477 30.6196 26.6314 30.9201 26.3866C31.1937 26.1646 31.4478 25.9189 31.6845 25.6577C31.8362 25.489 31.9741 25.3076 32.097 25.1163C32.3631 24.7017 32.5583 24.2457 32.6748 23.767C32.7281 24.2503 32.8401 24.7303 33.0399 25.1748C33.1651 25.4536 33.3258 25.7177 33.5218 25.9525C33.7863 26.2668 34.0987 26.5375 34.4474 26.7547C34.8074 26.9848 35.1962 27.1666 35.593 27.3244C35.765 27.3915 35.9436 27.4407 36.1245 27.4747V31.4314L36.7921 31.403L36.8592 31.4002L36.9263 31.3974L36.948 31.3964L37.0921 31.3912C37.7138 31.3676 38.3355 31.3501 38.9563 31.3104C39.3811 31.2792 39.8039 31.1824 40.1885 30.9967C40.2943 30.9448 40.4001 30.8914 40.5026 30.8328C40.9015 30.6021 41.2663 30.317 41.5864 29.9857C41.6285 29.9441 41.6672 29.9002 41.7045 29.8544C41.9644 29.5463 42.193 29.2081 42.3518 28.8363C42.4226 28.6709 42.4779 28.4985 42.5185 28.3232C42.6272 27.8673 42.6716 27.3996 42.6952 26.9328C42.7075 26.6952 42.7155 26.4575 42.724 26.2199C42.7581 24.7081 42.7486 23.1958 42.7491 21.6835C42.7491 21.3131 42.75 20.9427 42.7496 20.5723V17.9999H38.6252V18.1085C38.1618 17.919 37.6649 17.825 37.1644 17.8322ZM27.8251 21.8748C27.8738 21.8767 27.9244 21.8791 27.9697 21.8985C27.9858 21.9089 27.9985 21.9235 28.0137 21.9353C28.179 22.0808 28.3359 22.2377 28.4729 22.4101C28.4913 22.4432 28.4946 22.4819 28.4979 22.5188C28.5045 22.6147 28.4955 22.7101 28.488 22.8051C28.4536 23.0505 28.3273 23.2738 28.1346 23.4296C28.0396 23.5062 27.9286 23.5629 27.81 23.5907C27.6579 23.6333 27.4935 23.6191 27.3456 23.5652C27.1568 23.4976 26.9956 23.3694 26.8874 23.2005C26.8473 23.1348 26.816 23.0641 26.7943 22.9903C26.7388 22.7887 26.7581 22.574 26.8486 22.3855C26.8817 22.3166 26.9237 22.2523 26.9724 22.1937C27.0565 22.0728 27.1746 21.9726 27.3144 21.9235C27.3598 21.9074 27.4075 21.8999 27.4548 21.8937C27.5604 21.8794 27.667 21.8731 27.7737 21.8748C27.7907 21.8739 27.8077 21.8744 27.8251 21.8748ZM37.8518 21.8843C37.9302 21.8843 38.0081 21.8952 38.0823 21.9197C38.2977 21.9896 38.482 22.1531 38.5746 22.36C38.6044 22.4215 38.6289 22.4843 38.645 22.5504C38.6842 22.7077 38.6833 22.8774 38.6289 23.0309C38.6072 23.0914 38.5765 23.149 38.5377 23.201L38.5255 23.217C38.4245 23.3437 38.2936 23.4434 38.1447 23.5071C38.0407 23.5535 37.9314 23.5869 37.8192 23.6063C37.745 23.6043 37.6719 23.5883 37.6037 23.5591C37.5258 23.5283 37.4495 23.4936 37.3751 23.4552C37.2469 23.3699 37.1482 23.2471 37.0925 23.1037C37.017 22.9194 37.0015 22.7161 37.0481 22.5226C37.0708 22.4314 37.1096 22.3444 37.1634 22.2674C37.2881 22.069 37.5003 21.9273 37.7322 21.8923C37.7719 21.8862 37.8121 21.8833 37.8518 21.8843ZM12.433 22.0213C12.519 22.0218 12.605 22.0378 12.6839 22.0714C12.8648 22.147 13.0146 22.2972 13.0855 22.4805C13.1228 22.5792 13.1351 22.686 13.1285 22.7904C13.1189 22.9446 13.0663 23.093 12.9768 23.2189C12.8777 23.3218 12.7546 23.3985 12.6187 23.4424C12.4642 23.4948 12.2984 23.5137 12.1359 23.4981C12.0091 23.4793 11.8946 23.4121 11.8165 23.3106C11.7161 23.1901 11.6552 23.0417 11.6422 22.8854C11.6231 22.7085 11.659 22.5299 11.7451 22.3742C11.7995 22.2797 11.877 22.197 11.9724 22.1427C12.1108 22.061 12.2724 22.0194 12.433 22.0213Z" fill="#BEE1F0"/>
<path d="M24.5746 47.2253C24.362 47.025 23.625 45.4253 22.237 42.1626L20.2121 37.3749H14.187C10.6995 37.3749 7.87476 37.3253 7.48736 37.2502C6.4872 37.0626 5.13697 36.3502 4.41177 35.625C3.67476 34.888 2.96232 33.6001 2.76201 32.65C2.66232 32.2003 2.625 28.725 2.625 21.5878C2.625 12.6374 2.64957 11.0751 2.81209 10.4377C3.41209 8.13742 5.32453 6.37475 7.62484 6.01239C8.74925 5.8253 41.2622 5.8253 42.3748 6.01239C44.6122 6.36246 46.4623 7.96262 47.1247 10.0877C47.3623 10.8752 47.3751 11.2376 47.3751 21.55C47.3751 28.2625 47.3245 32.3878 47.2371 32.7374C46.8998 34.2251 45.6247 35.8749 44.2749 36.6001C42.8874 37.3376 42.5496 37.3749 35.9245 37.3749H29.9122L27.8874 42.1626C26.762 44.7875 25.7623 47.025 25.6494 47.1374C25.2748 47.5125 24.9247 47.5376 24.5746 47.2253ZM40.1245 30.1877C40.4996 29.9751 40.9872 29.5749 41.2121 29.2749C41.9496 28.3003 41.9996 27.9379 41.9996 23.1001V18.7499H39.3748V19.5374L39.0998 19.2875C38.4119 18.6625 37.4874 18.4499 36.4248 18.6625C34.4245 19.0749 33.3748 20.5003 33.3748 22.8001C33.3748 24.7253 33.8996 25.6877 35.3245 26.3878C35.9623 26.7001 36.2874 26.7875 36.8496 26.7875C37.7496 26.7752 38.4998 26.5749 38.9373 26.2253L39.2869 25.9499L39.1995 26.5003C39.0247 27.5878 38.4497 28.1255 37.4496 28.1255H36.8746V30.6502L38.162 30.6001C39.2874 30.5623 39.5122 30.5127 40.1245 30.1877ZM14.6996 26.35C15.4121 26.025 16.0995 25.3248 16.4245 24.6374C16.7746 23.8499 16.7874 21.9875 16.4496 21.0124C16.1996 20.2754 15.4371 19.3499 14.8244 19.0253C13.5497 18.3625 11.9245 18.4749 11.0373 19.2875L10.7496 19.5379V15.3752H7.99996L8.02453 20.9122L8.06232 26.4374L9.41209 26.4752C10.6872 26.513 10.7496 26.5003 10.7496 26.2499C10.7496 25.9376 10.7874 25.9376 11.3623 26.3127C12.2373 26.8999 13.5119 26.9127 14.6996 26.3505V26.35ZM29.3373 26.4752C30.0998 26.2003 31.1373 25.313 31.5497 24.5751C32.9122 22.2001 31.3622 19.3253 28.4122 18.7499C26.5622 18.3875 24.5618 19.2875 23.6874 20.8877C23.4119 21.4125 23.3122 21.7626 23.2744 22.5129C23.2248 23.35 23.2622 23.5499 23.5622 24.225C23.9245 25.0376 24.7494 25.9253 25.4996 26.3127C26.5872 26.8749 28.0872 26.9377 29.3373 26.4752ZM21.4744 22.2124L21.4371 17.9377L21.0247 17.1001C20.4497 15.9379 19.537 15.3124 18.037 15.0625L17.4998 14.9751V16.3626C17.4998 17.5499 17.5248 17.7502 17.6996 17.7502C17.8121 17.7502 18.087 17.9377 18.3247 18.1754L18.7499 18.6001V26.5003H21.5118L21.4744 22.2124Z" fill="#E83D69"/>
<path d="M37.1619 24.1878C36.3371 23.8378 36.012 22.7129 36.4996 21.9126C37.1752 20.8004 38.7498 20.9001 39.2747 22.0874C39.6621 22.9756 39.2747 23.8874 38.3374 24.2379C37.8744 24.4127 37.649 24.4004 37.1619 24.1878ZM11.5249 24.0504C10.5999 23.4126 10.6996 21.9126 11.6997 21.4378C13.0745 20.7877 14.3874 22.1502 13.6873 23.5004C13.3372 24.1879 12.1495 24.4878 11.5249 24.0504ZM26.7871 24.1255C26.601 24.014 26.4396 23.8657 26.3127 23.6897C26.1859 23.5136 26.0963 23.3136 26.0495 23.1017C26.0028 22.8898 25.9997 22.6707 26.0406 22.4576C26.0815 22.2445 26.1654 22.042 26.2873 21.8625C26.6497 21.3253 27.0371 21.1255 27.7372 21.1255C28.1997 21.1255 28.3495 21.1878 28.7624 21.6126C29.1748 22.0255 29.2495 22.1753 29.2495 22.6378C29.2495 23.9753 27.8874 24.8001 26.7871 24.1255Z" fill="#E83D69"/>
</svg>
