<svg width="50" height="50" viewBox="0 0 50 50" fill="none" xmlns="http://www.w3.org/2000/svg">
<path d="M25.0005 18.4912C21.4165 18.4912 18.4917 21.416 18.4917 25C18.4917 28.584 21.4165 31.5088 25.0005 31.5088C28.5845 31.5088 31.5093 28.584 31.5093 25C31.5093 21.416 28.5845 18.4912 25.0005 18.4912ZM44.522 25C44.522 22.3047 44.5464 19.6338 44.395 16.9433C44.2436 13.8183 43.5308 11.0449 41.2456 8.75975C38.9556 6.46971 36.187 5.76171 33.062 5.61034C30.3667 5.45897 27.6958 5.48339 25.0054 5.48339C22.31 5.48339 19.6391 5.45897 16.9487 5.61034C13.8237 5.76171 11.0503 6.4746 8.76512 8.75975C6.47509 11.0498 5.76708 13.8183 5.61571 16.9433C5.46434 19.6387 5.48876 22.3096 5.48876 25C5.48876 27.6904 5.46434 30.3662 5.61571 33.0566C5.76708 36.1816 6.47997 38.9551 8.76512 41.2402C11.0552 43.5303 13.8237 44.2383 16.9487 44.3896C19.644 44.541 22.3149 44.5166 25.0054 44.5166C27.7007 44.5166 30.3716 44.541 33.062 44.3896C36.187 44.2383 38.9604 43.5254 41.2456 41.2402C43.5356 38.9502 44.2436 36.1816 44.395 33.0566C44.5513 30.3662 44.522 27.6953 44.522 25ZM25.0005 35.0146C19.4585 35.0146 14.9858 30.542 14.9858 25C14.9858 19.458 19.4585 14.9853 25.0005 14.9853C30.5425 14.9853 35.0151 19.458 35.0151 25C35.0151 30.542 30.5425 35.0146 25.0005 35.0146ZM35.4253 16.914C34.1313 16.914 33.0864 15.8691 33.0864 14.5752C33.0864 13.2812 34.1313 12.2363 35.4253 12.2363C36.7192 12.2363 37.7641 13.2812 37.7641 14.5752C37.7645 14.8824 37.7043 15.1867 37.5869 15.4707C37.4695 15.7546 37.2972 16.0126 37.08 16.2299C36.8627 16.4471 36.6047 16.6194 36.3208 16.7368C36.0368 16.8542 35.7325 16.9144 35.4253 16.914Z" fill="#E83D69"/>
</svg>
