<svg width="50" height="50" viewBox="0 0 50 50" fill="none" xmlns="http://www.w3.org/2000/svg">
<path d="M20.4544 31.5863L31.4073 25.3247L20.4544 19.0631V31.5863ZM44.8505 15.2436C45.1249 16.2246 45.3148 17.5395 45.4414 19.2093C45.5891 20.879 45.6525 22.3192 45.6525 23.5715L45.7791 25.3247C45.7791 29.8957 45.4414 33.2561 44.8505 35.4059C44.3229 37.2844 43.0989 38.495 41.1995 39.0168C40.2077 39.2881 38.3927 39.476 35.607 39.6012C32.8635 39.7473 30.3521 39.8099 28.0307 39.8099L24.6752 39.9351C15.8327 39.9351 10.3245 39.6012 8.15083 39.0168C6.25148 38.495 5.02746 37.2844 4.49986 35.4059C4.22551 34.4249 4.03557 33.11 3.90895 31.4402C3.76122 29.7705 3.69791 28.3303 3.69791 27.078L3.57129 25.3247C3.57129 20.7538 3.90895 17.3934 4.49986 15.2436C5.02746 13.3651 6.25148 12.1545 8.15083 11.6327C9.14272 11.3614 10.9577 11.1735 13.7434 11.0483C16.4869 10.9022 18.9982 10.8396 21.3197 10.8396L24.6752 10.7144C33.5177 10.7144 39.0258 11.0483 41.1995 11.6327C43.0989 12.1545 44.3229 13.3651 44.8505 15.2436Z" fill="#E83D69"/>
</svg>
