<svg width="201" height="154" viewBox="0 0 201 154" fill="none" xmlns="http://www.w3.org/2000/svg">
<path d="M57.6086 111.434C56.9916 111.435 56.3811 111.307 55.8169 111.057C55.2526 110.807 54.7472 110.442 54.3333 109.984C53.5273 109.115 53.0992 107.962 53.1428 106.778C53.1864 105.594 53.6983 104.475 54.566 103.668L63.8908 95.0436L54.7629 87.5285C53.8396 86.774 53.254 85.6837 53.1348 84.4975C53.0157 83.3113 53.3727 82.1263 54.1275 81.2033C54.8822 80.2803 55.9728 79.6949 57.1593 79.5757C58.3459 79.4566 59.5311 79.8136 60.4544 80.5681L73.5377 91.3039C74.0298 91.7113 74.4293 92.2188 74.7096 92.7928C74.9899 93.3667 75.1446 93.9938 75.1632 94.6322C75.1818 95.2707 75.064 95.9057 74.8177 96.495C74.5713 97.0843 74.2021 97.6143 73.7346 98.0496L60.6513 110.163C59.8389 110.963 58.7488 111.418 57.6086 111.434Z" fill="#724D38"/>
<path d="M41.8408 64.6254C44.1854 69.0628 36.6862 73.8403 34.1805 69.0986C33.6435 68.0608 33.0887 67.023 32.5339 65.9852C30.2429 67.4882 27.9401 68.9793 25.6253 70.4585L27.1824 72.7667C27.833 73.6741 28.1252 74.7898 28.003 75.8995C27.8808 77.0092 27.3527 78.0346 26.5202 78.7788C25.1241 80.1207 21.992 80.9617 20.6676 78.9935C13.1938 68.4103 6.4257 57.3463 0.407158 45.8734C-1.83008 41.3823 5.77653 36.6049 8.06746 41.4002C12.0136 49.162 16.4245 56.6788 21.2761 63.9096L28.7932 59.0964C27.0512 55.9234 25.2614 52.7861 23.4238 49.6847C21.992 47.2393 20.5184 44.8118 19.0031 42.4022C19.0031 42.2591 18.3766 41.4002 18.3229 41.3107C18.0008 40.8276 17.6965 40.3445 17.3744 39.8793C16.8016 39.0383 16.2289 38.1973 15.5846 37.3743C14.931 36.4634 14.6388 35.3424 14.7644 34.2285C14.8901 33.1145 15.4246 32.0868 16.2647 31.3443C17.6786 29.9844 20.7392 29.1971 22.0994 31.1296C29.4144 41.8456 36.0094 53.0354 41.8408 64.6254Z" fill="#E83D69"/>
<path d="M65.0723 53.2633C64.6021 55.9265 63.2894 58.3685 61.3273 60.2303C59.3652 62.092 56.8573 63.275 54.1725 63.6054C52.083 63.7078 49.9998 63.3023 48.1014 62.4235C46.2031 61.5447 44.5462 60.2188 43.2726 58.5596C40.3993 54.9252 38.2431 50.778 36.9189 46.3386C35.4673 42.2033 34.7878 37.8365 34.9143 33.4556C34.9588 29.1704 36.5401 25.0434 39.3709 21.8252C42.7536 18.2466 48.5167 16.4572 52.669 19.6601C57.931 23.686 57.2151 32.1852 56.0517 37.911C55.0316 42.9032 53.0091 48.2711 49.2684 51.6887C49.4832 51.9928 49.6801 52.2612 49.877 52.4939C50.3354 53.0354 50.8318 53.5437 51.3625 54.0148L52.15 54.641L52.3469 54.7484C52.671 54.8734 52.9877 55.0168 53.2955 55.1778L53.9577 55.3031H54.083H54.1725C54.4139 55.2516 54.6595 55.2216 54.9063 55.2136H55.0674L55.3179 55.0883L55.5864 54.9273L55.6938 54.7663C55.6938 54.7663 56.0696 54.301 55.9802 54.4621C56.1189 54.2493 56.2444 54.0282 56.356 53.8C56.5888 53.195 56.7743 52.5729 56.9108 51.9392C57.2663 50.8361 57.9998 49.8939 58.982 49.2785C59.9643 48.6631 61.1323 48.4141 62.2802 48.5753C62.7811 48.6826 63.2545 48.892 63.6707 49.1906C64.0869 49.4892 64.437 49.8704 64.6991 50.3104C64.9611 50.7504 65.1296 51.2398 65.1938 51.7479C65.258 52.256 65.2166 52.7719 65.0723 53.2633ZM45.9215 42.7421C45.9267 42.6707 45.9267 42.5989 45.9215 42.5274L46.2079 41.8296C46.4406 41.2212 46.6553 40.6129 46.8522 40.0403C47.0491 39.4677 47.2997 38.5194 47.4787 37.7321C47.4787 37.4458 47.8008 36.2112 47.7829 36.3185C48.045 35.0552 48.2244 33.7761 48.3199 32.4894C48.3199 31.9347 48.3199 31.3622 48.3199 30.8075C48.3199 30.6643 48.3199 30.1812 48.3199 30.2707V29.9128C48.2409 29.3693 48.1273 28.8315 47.9798 28.3024C47.9246 28.0651 47.8529 27.8319 47.765 27.6046C47.5571 27.2929 47.3659 26.9704 47.1923 26.6384C47.0704 26.5536 46.9565 26.4578 46.8522 26.3521C46.3869 26.5131 46.5838 26.3521 46.0289 26.6026L45.7605 26.7815L45.3667 27.1573L45.2593 27.2647V27.372C45.0624 27.6762 44.8835 27.9625 44.7224 28.2667L44.5971 28.4993L44.4897 28.8392C44.4002 29.1255 44.2928 29.4118 44.2212 29.6981C44.0403 30.2421 43.9319 30.8077 43.8991 31.3801C43.747 32.8732 43.747 34.378 43.8991 35.8712C44.1805 38.6156 44.7812 41.3178 45.6889 43.9231L46.1721 42.9569L45.9215 42.7421Z" fill="#E83D69"/>
<path d="M90.0401 48.8436C89.0856 51.3647 87.3366 53.5068 85.0571 54.9464C82.7775 56.386 80.0913 57.0451 77.4042 56.8239C75.3245 56.497 73.3535 55.6765 71.6564 54.4312C69.9592 53.1859 68.5853 51.5521 67.6498 49.6667C65.5108 45.5344 64.169 41.0365 63.6944 36.408C63.0394 32.0702 63.185 27.6492 64.1239 23.3639C64.9319 19.1804 67.2269 15.4306 70.5851 12.807C74.5763 9.99783 80.5363 9.44315 84.1159 13.3975C88.5187 18.3897 86.2457 26.531 84.0264 31.9705C82.1113 36.6764 79.1224 41.5254 74.8269 44.1378C74.9542 44.4522 75.1037 44.7571 75.2743 45.0503C75.6241 45.6746 76.0189 46.2727 76.4556 46.8396C76.6552 47.1084 76.8704 47.3653 77.0999 47.609L77.2789 47.7522C77.5728 47.9356 77.8539 48.1388 78.1201 48.3605L78.7644 48.6289H78.8718C79.116 48.6098 79.3614 48.6098 79.6056 48.6289H79.7667H80.0351L80.3394 48.5216L80.4826 48.3963C80.4826 48.3963 80.93 48.0027 80.8048 48.1458C80.9861 47.968 81.1537 47.7766 81.3059 47.5732C81.6437 46.9974 81.9427 46.3996 82.2008 45.7839C82.7554 44.7714 83.653 43.9899 84.7324 43.5799C85.8118 43.17 87.002 43.1584 88.0892 43.5473C88.5876 43.7396 89.0393 44.0359 89.4141 44.4165C89.7889 44.7971 90.0783 45.2532 90.2629 45.7543C90.4475 46.2555 90.5231 46.7903 90.4847 47.323C90.4463 47.8557 90.2947 48.3741 90.0401 48.8436ZM73.1982 34.7081C73.2415 34.6469 73.2775 34.5809 73.3055 34.5113C73.4487 34.2966 73.5919 34.0998 73.7172 33.885C74.0572 33.3304 74.3794 32.7757 74.6837 32.2031C74.9879 31.6305 75.4175 30.7896 75.7397 30.0738C75.8649 29.7875 76.3303 28.6245 76.2945 28.7319C76.7311 27.564 77.0899 26.3685 77.3684 25.1532C77.4936 24.6165 77.5831 24.0618 77.6726 23.5071C77.6726 23.3639 77.6726 22.8808 77.6726 22.9703C77.6726 23.0598 77.6726 22.7377 77.6726 22.6124C77.6726 22.0577 77.6726 21.521 77.6726 20.9663C77.6726 20.7158 77.6726 20.4832 77.6726 20.2327C77.5228 19.8819 77.3914 19.5235 77.2789 19.1591C77.1809 19.0464 77.0911 18.9268 77.0104 18.8012C76.5272 18.8012 76.7598 18.8012 76.1513 18.8012L75.8649 18.9265L75.4175 19.2128L75.2743 19.3022L74.5763 20.0716C74.5366 20.1475 74.4818 20.2145 74.4152 20.2684C74.3725 20.3809 74.3185 20.4888 74.2541 20.5905L73.8246 21.3778C73.5502 21.8805 73.3398 22.4154 73.1982 22.9703C72.7493 24.3968 72.4494 25.8659 72.3033 27.3541C72.0897 30.1128 72.1978 32.887 72.6254 35.6207C72.8581 35.3523 73.0729 35.066 73.2876 34.7797L73.1982 34.7081Z" fill="#E83D69"/>
<path d="M104.358 20.4474C102.568 26.4595 92.1159 24.205 94.0667 17.4951C94.511 15.962 94.8223 14.3936 94.9974 12.8071C93.6882 12.3525 92.5799 11.4534 91.8653 10.2663C91.8653 10.1231 91.7042 9.96209 91.6147 9.80105C91.2008 9.30946 90.892 8.73832 90.7073 8.12286C90.5226 7.50739 90.466 6.86063 90.5408 6.22244C90.6807 5.19713 91.0534 4.21741 91.6304 3.35832C92.2074 2.49922 92.9735 1.78354 93.8698 1.26607C95.092 0.478005 96.5141 0.0558285 97.9685 0.0493422C99.6352 -0.0564966 101.278 0.488791 102.55 1.57025C107.705 5.61408 105.897 15.0974 104.358 20.4474Z" fill="#E83D69"/>
<path d="M132.44 51.6352C132.097 53.1537 131.412 54.5737 130.435 55.7864C129.662 56.6114 128.68 57.2128 127.593 57.5277C126.507 57.8425 125.356 57.8591 124.261 57.5757C121.075 56.7347 120.019 53.675 119.177 50.7584C118.265 47.5377 117.549 44.2454 116.887 40.953C116.493 44.4243 116.117 47.9134 115.741 51.3847C115.677 52.4875 115.192 53.5236 114.386 54.2794C113.58 55.0351 112.515 55.4528 111.41 55.4464C109.513 55.4464 106.613 53.9971 106.882 51.6352C107.988 38.6019 109.95 25.6554 112.752 12.8788C113.844 8.33401 121.397 9.30024 121.486 13.6482C121.496 13.833 121.496 14.0182 121.486 14.2029C122.256 20.3939 123.276 26.5491 124.314 32.6864C124.78 35.2988 125.299 38.0544 125.907 40.953C127.446 32.9675 128.546 24.9035 129.2 16.7974C129.264 15.6946 129.75 14.6585 130.555 13.9027C131.361 13.147 132.427 12.7293 133.532 12.7357C135.447 12.7357 138.275 14.185 138.06 16.5648C137.523 22.7558 136.7 28.9289 135.769 35.0662C135.074 40.6644 133.961 46.2028 132.44 51.6352Z" fill="#724D38"/>
<path d="M157.497 65.6633C155.833 69.242 150.338 67.8105 149.282 64.554L148.656 64.6613C146.351 64.9118 144.029 64.3812 142.063 63.1548C140.096 61.9283 138.598 60.077 137.81 57.8978C136.288 53.1561 137.595 47.7882 138.955 43.1718C141.438 35.3165 144.427 27.6302 147.904 20.1613C148.853 17.9784 151.931 17.6742 153.757 18.5331C154.749 18.9659 155.53 19.7718 155.932 20.7765C156.334 21.7811 156.324 22.9036 155.904 23.901C152.574 30.9661 149.739 38.2542 147.421 45.7126C146.767 47.912 146.3 50.1626 146.025 52.4404C146.025 52.7267 146.025 53.0309 146.025 53.335C146.025 53.6929 146.025 54.0329 146.025 54.3907C146.025 54.7486 146.025 55.178 146.186 55.5896V55.679C146.186 55.8043 146.311 55.9474 146.365 56.0906L146.204 55.9295L146.436 56.2695H146.544C146.544 56.2695 146.544 56.2695 146.651 56.2695H146.884H146.991H147.295H147.439H147.671L148.638 55.679C148.745 55.5896 149.032 55.3748 149.193 55.2138C149.938 54.5106 150.62 53.7443 151.233 52.9235L152.003 51.7783C152.361 51.2058 152.719 50.6332 153.059 49.989C153.721 48.826 154.329 47.6451 154.938 46.4104C158.067 39.7808 160.856 32.9966 163.296 26.0839C164.12 23.8473 167.431 23.6326 169.167 24.4557C169.505 24.6225 169.823 24.8266 170.115 25.064C170.816 25.4446 171.377 26.038 171.718 26.7585C172.059 27.4789 172.162 28.2892 172.012 29.0721C167.991 41.5776 163.142 53.8017 157.497 65.6633ZM146.759 56.8421C146.759 56.8421 146.759 56.8421 146.597 56.681H146.49C146.525 56.6901 146.562 56.6901 146.597 56.681C146.597 56.7884 146.759 56.86 146.759 56.8421Z" fill="#724D38"/>
<path d="M200.255 49.2554C199.48 50.0691 198.426 50.56 197.304 50.6297C196.182 50.6994 195.076 50.3427 194.206 49.6311L191.038 47.3229C184.762 56.3652 178.984 65.7432 173.731 75.415C173.232 76.3743 172.383 77.1047 171.36 77.4545C170.336 77.8044 169.218 77.7468 168.236 77.2938C166.446 76.5423 164.442 73.9299 165.605 71.9258C171.138 61.7398 177.208 51.8549 183.789 42.3129C182.25 41.293 180.729 40.2909 179.189 39.3068C178.739 39.0049 178.353 38.6161 178.054 38.1633C177.755 37.7104 177.55 37.2025 177.45 36.6694C177.35 36.1362 177.357 35.5885 177.472 35.0582C177.586 34.5279 177.805 34.0257 178.116 33.581C178.9 32.7771 179.956 32.2934 181.077 32.224C182.198 32.1546 183.305 32.5043 184.183 33.2053C189.32 36.4976 194.385 39.9331 199.271 43.6012C199.708 43.9065 200.081 44.2955 200.368 44.7455C200.654 45.1956 200.849 45.6978 200.94 46.2234C201.032 46.749 201.018 47.2875 200.901 47.8078C200.783 48.3282 200.564 48.8201 200.255 49.2554Z" fill="#724D38"/>
<path d="M135.912 118.895C142.821 118.895 148.423 112.118 148.423 103.757C148.423 95.3972 142.821 88.6199 135.912 88.6199C129.003 88.6199 123.401 95.3972 123.401 103.757C123.401 112.118 129.003 118.895 135.912 118.895Z" fill="#724D38"/>
<path d="M102.819 131.617C102.819 131.617 107.079 151.299 118.265 148.293C129.451 145.287 126.588 133.389 118.265 123.243" fill="#E83D69"/>
<path d="M115.974 153.071C113.679 153.087 111.424 152.468 109.459 151.281C101.656 146.522 98.7206 134.05 98.4521 132.637C98.1911 131.476 98.4017 130.26 99.0378 129.255C99.6738 128.25 100.683 127.539 101.844 127.278C103.004 127.017 104.221 127.227 105.226 127.863C106.232 128.499 106.943 129.508 107.204 130.668C108.045 134.551 110.676 141.404 114.113 143.569C114.546 143.856 115.038 144.041 115.553 144.109C116.068 144.177 116.591 144.127 117.084 143.963C120.252 143.122 120.663 141.637 120.914 141.064C121.773 138.362 120.216 132.69 114.811 126.124C114.401 125.676 114.087 125.15 113.886 124.577C113.686 124.005 113.605 123.397 113.647 122.792C113.689 122.187 113.854 121.597 114.132 121.057C114.409 120.518 114.793 120.04 115.261 119.654C115.729 119.267 116.271 118.98 116.853 118.81C117.435 118.639 118.046 118.589 118.649 118.662C119.251 118.735 119.833 118.93 120.357 119.234C120.882 119.539 121.339 119.947 121.702 120.434C128.664 128.879 131.474 137.378 129.433 143.695C128.467 146.754 125.854 150.852 119.428 152.516C118.308 152.858 117.146 153.044 115.974 153.071Z" fill="#724D38"/>
<path d="M99.2753 134.856C94.5415 134.803 89.9038 133.513 85.8224 131.115C81.7409 128.717 78.3576 125.294 76.008 121.185C75.6779 120.681 75.4533 120.115 75.3476 119.521C75.2419 118.927 75.2573 118.319 75.3929 117.731C75.5285 117.144 75.7815 116.59 76.1368 116.102C76.492 115.615 76.942 115.205 77.4599 114.896C77.9778 114.587 78.5528 114.386 79.1504 114.304C79.748 114.223 80.3559 114.264 80.9374 114.423C81.519 114.583 82.0623 114.858 82.5347 115.233C83.007 115.608 83.3987 116.075 83.6862 116.605C85.2089 119.418 87.4639 121.768 90.2127 123.406C92.9616 125.044 96.1021 125.909 99.3021 125.909C102.502 125.909 105.643 125.044 108.391 123.406C111.14 121.768 113.395 119.418 114.918 116.605C115.206 116.075 115.597 115.608 116.07 115.233C116.542 114.858 117.085 114.583 117.667 114.423C118.248 114.264 118.856 114.223 119.454 114.304C120.051 114.386 120.626 114.587 121.144 114.896C121.662 115.205 122.112 115.615 122.467 116.102C122.823 116.59 123.076 117.144 123.211 117.731C123.347 118.319 123.362 118.927 123.257 119.521C123.151 120.115 122.926 120.681 122.596 121.185C120.242 125.302 116.85 128.73 112.759 131.128C108.667 133.527 104.018 134.812 99.2753 134.856Z" fill="#724D38"/>
</svg>
