<svg width="72" height="65" viewBox="0 0 72 65" fill="none" xmlns="http://www.w3.org/2000/svg">
<g clip-path="url(#clip0_407_531)">
<path d="M37.6972 55.7883L37.5594 55.9461L37.181 55.8953C13.5996 52.7193 8.12148 34.5363 8.12148 34.5363C3.49305 16.4087 21.4019 12.4451 21.4019 12.4451L23.6234 18.3071L21.5192 12.4878C21.5192 12.4878 37.3498 4.05652 45.562 20.8521C45.5396 20.8616 53.1345 38.257 37.6972 55.7883Z" fill="#E83B68"/>
<path d="M37.7578 55.9475L37.5494 55.9236L37.6872 55.7658L37.7578 55.9475Z" fill="#E82938"/>
<path d="M37.5495 55.9237L37.2948 56.2106L37.1543 55.8801L37.5495 55.9237Z" fill="#E82938"/>
<path d="M23.7857 10.4988C23.7857 10.4988 17.0799 1.98607 18.6358 12.7945C18.6358 12.7945 10.4375 14.0446 11.0513 19.3268L14.3761 20.3076L15.8585 25.6901C15.8585 25.6901 19.6271 24.855 21.6251 22.4046L26.2475 25.3804C26.2475 25.3804 28.2399 22.9324 28.1744 20.0895L33.6788 19.4357C33.7112 18.2764 33.3976 17.1334 32.7781 16.1527C32.1587 15.172 31.2614 14.398 30.2008 13.9294L32.9103 9.60884C32.9103 9.60884 30.2346 6.48667 23.7857 10.4988Z" fill="#79A379"/>
<path d="M17.7443 31.5693C18.1085 33.1872 16.8512 34.8463 16.8512 34.8463C16.8512 34.8463 15.0391 33.8639 14.6494 32.2635C14.2596 30.6631 15.5425 28.9865 15.5425 28.9865C15.5425 28.9865 17.3882 29.9546 17.7443 31.5693Z" fill="#F4EB98"/>
<path d="M27.0102 41.5798C27.3743 43.1977 26.1099 44.84 26.1099 44.84C26.1099 44.84 24.2769 43.8863 23.9016 42.2732C23.5263 40.66 24.7971 39.0018 24.7971 39.0018C24.7971 39.0018 26.6588 39.9763 27.0102 41.5798Z" fill="#F4EB98"/>
<path d="M31.4883 30.137C31.8469 31.7573 30.5928 33.4084 30.5928 33.4084C30.5928 33.4084 28.7646 32.4659 28.391 30.8256C28.0173 29.1853 29.2865 27.5542 29.2865 27.5542C29.2865 27.5542 31.1242 28.5191 31.4883 30.137Z" fill="#F4EB98"/>
<path d="M36.4195 47.7324C36.7765 49.3335 35.536 50.9854 35.536 50.9854C35.536 50.9854 33.6815 50.0277 33.3159 48.3906C32.9502 46.7535 34.2114 45.1192 34.2114 45.1192C34.2114 45.1192 36.0562 46.1008 36.4195 47.7324Z" fill="#F4EB98"/>
<path d="M42.4155 36.3455C42.7773 37.9578 41.5176 39.6113 41.5176 39.6113C41.5176 39.6113 39.6799 38.6464 39.3158 37.0285C38.9516 35.4106 40.2113 33.7571 40.2113 33.7571C40.2113 33.7571 42.0665 34.7476 42.4155 36.3455Z" fill="#F4EB98"/>
<path d="M41.0391 22.2923C41.3953 23.9069 40.1436 25.5637 40.1436 25.5637C40.1436 25.5637 38.3059 24.5988 37.9418 22.9809C37.5776 21.363 38.8373 19.7095 38.8373 19.7095C38.8373 19.7095 40.675 20.6743 41.0391 22.2923Z" fill="#F4EB98"/>
</g>
<g clip-path="url(#clip1_407_531)">
<path d="M38.864 55.6771L38.721 55.6538L38.611 55.4139C31.7651 40.4596 40.3638 30.6416 40.3638 30.6416C49.2436 21.3409 58.1665 30.3793 58.1665 30.3793L55.5625 33.8111L58.1848 30.4635C58.1848 30.4635 68.9503 36.6611 62.1708 47.5745C62.157 47.5649 54.7993 58.3352 38.864 55.6771Z" fill="#E83B68"/>
<path d="M38.7937 55.7707L38.7307 55.6401L38.8737 55.6633L38.7937 55.7707Z" fill="#E82938"/>
<path d="M38.7307 55.6402L38.4692 55.5955L38.6104 55.3931L38.7307 55.6402Z" fill="#E82938"/>
<path d="M60.183 31.0667C60.183 31.0667 62.6807 24.0469 56.942 28.8879C56.942 28.8879 53.1869 24.5452 50.3283 26.8252L50.9822 29.1275L48.3855 31.9523C48.3855 31.9523 50.2638 33.8539 52.4321 34.132L52.3997 37.9191C52.3997 37.9191 54.5646 38.1948 56.2008 37.1226L58.6136 40.1059C59.3027 39.7032 59.8546 39.1041 60.1988 38.3849C60.543 37.6658 60.664 36.8593 60.5464 36.0682L64.0696 36.0826C64.0696 36.0826 64.9058 33.3814 60.183 31.0667Z" fill="#79A379"/>
<path d="M45.6471 35.1934C44.8365 35.9949 43.4036 35.8625 43.4036 35.8625C43.4036 35.8625 43.3088 34.4448 44.0997 33.6348C44.8906 32.8247 46.3432 32.9657 46.3432 32.9657C46.3432 32.9657 46.4588 34.3978 45.6471 35.1934Z" fill="#F4EB98"/>
<path d="M43.2188 44.2562C42.4082 45.0577 40.9825 44.915 40.9825 44.915C40.9825 44.915 40.8632 43.4956 41.6668 42.6893C42.4705 41.8831 43.908 42.0237 43.908 42.0237C43.908 42.0237 44.0257 43.4675 43.2188 44.2562Z" fill="#F4EB98"/>
<path d="M51.5546 42.7156C50.7405 43.5146 49.3135 43.3812 49.3135 43.3812C49.3135 43.3812 49.1894 41.9687 50.0095 41.1535C50.8297 40.3383 52.2507 40.4879 52.2507 40.4879C52.2507 40.4879 52.3652 41.9141 51.5546 42.7156Z" fill="#F4EB98"/>
<path d="M43.0974 51.9998C42.294 52.791 40.8715 52.6659 40.8715 52.6659C40.8715 52.6659 40.7466 51.2324 41.5678 50.423C42.389 49.6137 43.8089 49.7574 43.8089 49.7574C43.8089 49.7574 43.9163 51.1939 43.0974 51.9998Z" fill="#F4EB98"/>
<path d="M51.9604 51.3677C51.1522 52.1657 49.7217 52.0299 49.7217 52.0299C49.7217 52.0299 49.6071 50.6037 50.4177 49.8022C51.2283 49.0007 52.6589 49.1365 52.6589 49.1365C52.6589 49.1365 52.7649 50.5824 51.9604 51.3677Z" fill="#F4EB98"/>
<path d="M59.661 45.4519C58.8494 46.2475 57.4199 46.1176 57.4199 46.1176C57.4199 46.1176 57.3054 44.6913 58.116 43.8898C58.9266 43.0884 60.3571 43.2242 60.3571 43.2242C60.3571 43.2242 60.4716 44.6505 59.661 45.4519Z" fill="#F4EB98"/>
</g>
<defs>
<clipPath id="clip0_407_531">
<rect width="39.8463" height="51.9734" fill="white" transform="translate(0 15.592) rotate(-23.0356)"/>
</clipPath>
<clipPath id="clip1_407_531">
<rect width="27.5983" height="35.7154" fill="white" transform="translate(48.4316 19) rotate(34.8935)"/>
</clipPath>
</defs>
</svg>
