<svg width="86" height="86" viewBox="0 0 86 86" fill="none" xmlns="http://www.w3.org/2000/svg">
<g clip-path="url(#clip0_407_554)">
<path d="M71.3091 61.324C71.3091 61.324 66.2354 68.4188 59.3615 67.3253C52.6511 65.7225 50.5431 57.2876 50.5431 57.2876C49.1698 51.8297 54.1878 47.2368 54.1878 47.2368C56.7639 44.8891 55.411 40.7017 55.411 40.7017C55.2672 28.2795 66.1129 29.5354 66.5032 29.5839L66.5995 29.6115C66.5995 29.6115 77.5878 32.459 72.8493 44.1144C72.8493 44.1144 70.0591 47.4911 71.5978 50.6441C71.6088 50.6214 74.5714 56.7812 71.3091 61.324Z" fill="#C1813D"/>
<path d="M53.6694 52.7232C53.6694 52.7232 52.7949 65.4734 43.4372 69.3414C33.8842 72.4371 24.8077 63.519 24.8077 63.519C18.9471 57.7607 21.6651 48.1503 21.6651 48.1503C23.0652 43.2404 18.1941 39.0459 18.1941 39.0459C8.50673 23.6998 22.9248 16.9552 23.4244 16.6981L23.5652 16.6577C23.5652 16.6577 39.3774 11.8077 42.4116 30.0061C42.4116 30.0061 41.5364 36.3584 45.8316 39.0938C45.8602 39.1219 54.2413 44.5544 53.6694 52.7232Z" fill="#C1813D"/>
<path d="M21.7587 22.5637C21.5844 22.5946 21.4054 22.588 21.2335 22.5442C21.0616 22.5005 20.9008 22.4206 20.7619 22.31C20.5108 22.1038 20.3508 21.8075 20.3164 21.4852C20.282 21.1629 20.3761 20.8408 20.5782 20.5888C21.1804 19.8208 21.9365 19.1874 22.7986 18.7289L22.9955 18.6656C23.3103 18.584 23.6451 18.6266 23.9307 18.7846C24.2162 18.9426 24.4308 19.204 24.53 19.5147C24.6223 19.8136 24.5936 20.1362 24.4499 20.4128C24.3062 20.6895 24.0592 20.8979 23.7622 20.9931C23.266 21.2974 22.8288 21.6883 22.4711 22.1472C22.288 22.3629 22.0369 22.5097 21.7587 22.5637Z" fill="#EFDABD"/>
<path d="M34.4532 65.0248C34.2834 65.056 34.1086 65.0505 33.9406 65.0086C33.7726 64.9668 33.6152 64.8896 33.4791 64.7822C32.1962 63.761 31.0092 62.6246 29.933 61.3873C29.7211 61.142 29.6139 60.8237 29.6344 60.5013C29.655 60.1789 29.8018 59.8782 30.0429 59.6643C30.1629 59.5581 30.3029 59.4769 30.4548 59.4254C30.6067 59.3738 30.7674 59.353 30.9278 59.3641C31.0881 59.3752 31.2448 59.4181 31.3888 59.4901C31.5329 59.5622 31.6613 59.662 31.7667 59.7838C32.7422 60.9029 33.8163 61.9321 34.976 62.8589C35.1628 63.004 35.304 63.1998 35.3824 63.4228C35.4608 63.6457 35.4731 63.8862 35.4178 64.1152C35.3626 64.3443 35.2421 64.552 35.0709 64.7134C34.8997 64.8749 34.6852 64.983 34.4532 65.0248ZM28.3968 57.9576C28.135 58.0054 27.8642 57.965 27.6268 57.8429C27.3894 57.7207 27.1987 57.5236 27.0845 57.2823C26.3493 55.7987 25.791 54.2346 25.4212 52.6224C25.3863 52.4661 25.3826 52.3046 25.4103 52.1472C25.438 51.9899 25.4966 51.8397 25.5827 51.7054C25.6688 51.571 25.7807 51.4552 25.9119 51.3645C26.0432 51.2738 26.1912 51.21 26.3475 51.1768C26.503 51.1363 26.6653 51.128 26.8244 51.1524C26.9836 51.1767 27.1363 51.2334 27.2732 51.3187C27.41 51.404 27.5282 51.5163 27.6204 51.6487C27.7126 51.7811 27.7769 51.9307 27.8094 52.0885C28.1399 53.5092 28.6295 54.8891 29.2687 56.2019C29.3561 56.3707 29.4025 56.5576 29.4041 56.7473C29.4058 56.9371 29.3626 57.1242 29.2782 57.2937C29.1938 57.4631 29.0705 57.61 28.9182 57.7224C28.766 57.8348 28.5893 57.9096 28.4023 57.9407L28.3968 57.9576ZM26.1748 48.9417L26.0112 48.9597C25.688 48.9764 25.3706 48.8641 25.1288 48.6474C24.887 48.4308 24.7406 48.1275 24.7216 47.8042C24.64 46.6076 24.6986 45.8166 24.6982 45.7828C24.723 45.2405 24.6845 44.6968 24.5835 44.1628C24.5299 43.9203 24.4762 43.6778 24.4056 43.4298C24.3621 43.2751 24.3497 43.1134 24.3691 42.9542C24.3885 42.795 24.4393 42.6414 24.5186 42.5022C24.5978 42.3631 24.704 42.2413 24.8309 42.1437C24.9578 42.0461 25.103 41.9748 25.2579 41.9339C25.5653 41.8511 25.8935 41.8902 26.174 42.0432C26.4545 42.1961 26.6658 42.451 26.7639 42.7549C26.8465 43.0593 26.9179 43.3751 26.9779 43.6797C27.1211 44.4085 27.1714 45.1519 27.1278 45.8923C27.1278 45.8923 27.0961 46.5758 27.1537 47.6483C27.1759 47.9439 27.09 48.2369 26.912 48.4727C26.734 48.7085 26.476 48.8712 26.186 48.9304L26.1748 48.9417ZM23.8304 40.0847C23.5935 40.1274 23.3488 40.0995 23.1269 40.0045C22.9049 39.9094 22.7154 39.7514 22.5818 39.5501C22.2139 38.9877 21.9445 38.6448 21.9388 38.6392C21.8878 38.5786 21.8434 38.5126 21.8067 38.4424C21.2292 37.3391 20.7197 36.2579 20.2954 35.2158C20.1793 34.917 20.1848 34.5852 20.3108 34.2917C20.4368 33.9983 20.6731 33.7666 20.9691 33.6464C21.2651 33.5263 21.597 33.5273 21.8935 33.6493C22.1901 33.7713 22.4276 34.0045 22.555 34.2987C22.9385 35.2338 23.3849 36.2306 23.9159 37.2212C24.0644 37.3671 24.3058 37.7384 24.622 38.2165C24.8003 38.4879 24.8639 38.8186 24.7987 39.1356C24.7336 39.4526 24.545 39.7301 24.2745 39.907C24.1425 39.99 23.9954 40.0465 23.8416 40.0733L23.8304 40.0847ZM20.2469 31.5062C19.9318 31.5637 19.6061 31.495 19.3399 31.315C19.0738 31.1349 18.8884 30.8578 18.8239 30.5435L18.7581 30.222C18.4354 28.6769 18.3561 27.0922 18.523 25.5253C18.5401 25.3646 18.5886 25.2091 18.6659 25.0675C18.7432 24.926 18.8477 24.8012 18.9734 24.7002C19.0991 24.5993 19.2436 24.5243 19.3987 24.4794C19.5537 24.4345 19.7163 24.4206 19.8771 24.4385C20.0378 24.4565 20.1936 24.5059 20.3356 24.5839C20.4776 24.662 20.603 24.7672 20.7047 24.8934C20.8063 25.0197 20.8821 25.1646 20.9279 25.3199C20.9737 25.4752 20.9884 25.6378 20.9714 25.7985C20.824 27.1272 20.8853 28.4719 21.153 29.784L21.2072 30.0717C21.2402 30.2288 21.2417 30.3907 21.2118 30.548C21.1819 30.7053 21.121 30.855 21.0328 30.9884C20.9445 31.1217 20.8306 31.2361 20.6977 31.325C20.5647 31.4139 20.4153 31.4754 20.2581 31.5061L20.2469 31.5062Z" fill="#EFDABD"/>
<path d="M40.5499 67.2299C39.7339 67.3742 38.8963 67.3523 38.087 67.1657C37.7908 67.0777 37.5382 66.8811 37.38 66.6153C37.2218 66.3496 37.1697 66.0343 37.2341 65.733C37.2986 65.4316 37.4748 65.1664 37.7274 64.9906C37.98 64.8148 38.2903 64.7415 38.596 64.7853C39.1906 64.9367 39.8138 64.929 40.4028 64.7631C40.7101 64.6609 41.0462 64.6852 41.337 64.8307C41.6278 64.9761 41.8495 65.2308 41.9534 65.5387C42.0573 65.8466 42.0349 66.1825 41.891 66.4724C41.7472 66.7624 41.4937 66.9827 41.1864 67.0849C41.1201 67.1055 41.0523 67.1211 40.9836 67.1313C40.8316 67.1717 40.6965 67.2064 40.5499 67.2299Z" fill="#EFDABD"/>
<path d="M24.0054 22.9736L23.8306 22.9916C23.5073 23.0052 23.1912 22.89 22.9515 22.6712C22.7118 22.4525 22.5682 22.1481 22.5521 21.8248C22.4517 19.4933 23.1594 18.6702 23.783 18.3897C23.8401 18.3601 23.9005 18.337 23.9629 18.3209C24.2749 18.2335 24.6094 18.2732 24.8937 18.4312C25.1779 18.5891 25.3888 18.8527 25.4804 19.1644C25.5528 19.3935 25.5552 19.6387 25.4874 19.8684C25.4197 20.0982 25.2848 20.3021 25.1001 20.4542C24.9875 20.8636 24.9485 21.2902 24.9848 21.7141C25.0009 22.0076 24.9108 22.2964 24.7309 22.5277C24.5511 22.759 24.2935 22.9173 24.0054 22.9736Z" fill="#EFDABD"/>
<path d="M37.423 61.0316C37.1709 61.0767 36.9107 61.0418 36.6785 60.9318C36.4464 60.8219 36.2541 60.6423 36.1283 60.4183C35.1767 58.7018 34.4883 57.2885 34.4594 57.2266C34.2337 56.7593 34.008 56.2807 33.7935 55.802C33.6612 55.5047 33.6522 55.1678 33.7684 54.8653C33.8259 54.7155 33.9124 54.5787 34.023 54.4626C34.1336 54.3466 34.2661 54.2535 34.4129 54.1889C34.5598 54.1242 34.7181 54.0892 34.8788 54.0858C35.0395 54.0824 35.1995 54.1106 35.3496 54.169C35.4997 54.2273 35.637 54.3146 35.7537 54.4258C35.8704 54.5371 35.9642 54.6701 36.0296 54.8172C36.2344 55.2715 36.4429 55.722 36.6552 56.1687C36.6552 56.1687 37.3492 57.5875 38.2664 59.2478C38.343 59.388 38.3912 59.5419 38.4081 59.7006C38.425 59.8592 38.4102 60.0195 38.3647 60.1721C38.3192 60.3246 38.2439 60.4665 38.143 60.5895C38.0421 60.7124 37.9178 60.814 37.7771 60.8883C37.6684 60.9564 37.5486 61.0049 37.423 61.0316ZM33.3121 51.7787C33.0235 51.8349 32.7237 51.7836 32.4692 51.6343C32.2147 51.485 32.0231 51.2481 31.9305 50.9682C31.2524 48.9846 30.7461 47.192 30.4391 46.0419C30.398 45.8864 30.3879 45.7245 30.4093 45.5655C30.4308 45.4064 30.4833 45.2533 30.5641 45.115C30.6448 44.9766 30.7521 44.8556 30.8798 44.7589C31.0075 44.6622 31.1532 44.5918 31.3084 44.5515C31.4637 44.5113 31.6256 44.5021 31.7847 44.5244C31.9439 44.5467 32.0973 44.6001 32.2362 44.6816C32.375 44.7631 32.4966 44.871 32.594 44.9993C32.6914 45.1275 32.7627 45.2736 32.8038 45.429C33.0991 46.5453 33.5821 48.2704 34.2424 50.192C34.3465 50.4999 34.3249 50.8358 34.1823 51.1264C34.0397 51.4171 33.7877 51.639 33.4811 51.7438C33.4255 51.7586 33.3691 51.7703 33.3121 51.7787ZM30.5004 42.0718C30.2153 42.1223 29.9208 42.0704 29.6691 41.9253C29.4174 41.7801 29.2246 41.5509 29.1247 41.2782C28.5616 39.7339 27.9163 38.2204 27.1917 36.7442C27.06 36.4555 27.0453 36.1276 27.1506 35.8296C27.256 35.5316 27.4731 35.2868 27.7563 35.1467C28.0395 35.0066 28.3666 34.9822 28.6688 35.0787C28.9709 35.1751 29.2244 35.3849 29.3759 35.6637C30.1384 37.2225 30.8167 38.8206 31.4078 40.4513C31.5134 40.7504 31.4982 41.0782 31.3655 41.3649C31.2327 41.6516 30.9928 41.8744 30.6971 41.9859C30.6296 42.0216 30.5578 42.0486 30.4834 42.0662L30.5004 42.0718ZM26.6087 32.7215C26.3263 32.7732 26.0342 32.7238 25.7837 32.5817C25.5331 32.4397 25.3402 32.2142 25.2387 31.9448C24.5573 30.1589 24.013 28.5077 23.5898 27.0646C23.5329 26.9073 23.5089 26.7401 23.5191 26.5735C23.5294 26.4069 23.5737 26.2443 23.6493 26.0958C23.725 25.9474 23.8303 25.8161 23.9589 25.7103C24.0875 25.6044 24.2366 25.5262 24.3969 25.4803C24.5573 25.4345 24.7255 25.4221 24.8912 25.4438C25.0569 25.4656 25.2166 25.5211 25.3604 25.6068C25.5042 25.6926 25.629 25.8068 25.7272 25.9425C25.8254 26.0781 25.8948 26.2323 25.9312 26.3955C26.337 27.7878 26.8692 29.3713 27.5216 31.0953C27.6311 31.3945 27.62 31.7238 27.4905 32.0135C27.361 32.3032 27.1233 32.5304 26.828 32.6468L26.6087 32.7215Z" fill="#EFDABD"/>
<path d="M41.9789 66.7695L41.7873 66.8045C40.659 66.9017 39.704 65.8741 38.9017 64.8625C38.7569 64.6065 38.7087 64.3074 38.7661 64.0199C38.8235 63.7325 38.9825 63.4758 39.2142 63.2969C39.4458 63.118 39.7345 63.0288 40.0276 63.0456C40.3207 63.0624 40.5985 63.1841 40.8103 63.3884C41.0703 63.7639 41.3865 64.0973 41.7479 64.3766C42.0337 64.3841 42.3085 64.4917 42.5242 64.6805C42.74 64.8693 42.8832 65.1274 42.9287 65.4099C42.9743 65.6924 42.9195 65.9813 42.7737 66.2265C42.628 66.4717 42.4006 66.6575 42.1311 66.7516L41.9789 66.7695Z" fill="#EFDABD"/>
<path d="M42.9679 66.4021C42.756 66.4357 42.5388 66.4176 42.3348 66.3494C42.1651 66.29 42.0105 66.1937 41.8821 66.0675C41.7536 65.9414 41.6547 65.7885 41.5923 65.6198C41.5063 65.3884 41.4917 65.1369 41.5504 64.8979C41.609 64.659 41.7382 64.4435 41.9212 64.2795C41.9639 64.1247 41.9886 63.9654 41.9948 63.8047C42.0033 63.6447 42.0436 63.4882 42.1134 63.3442C42.1833 63.2003 42.2812 63.0719 42.4014 62.9666C42.5216 62.8612 42.6618 62.781 42.8137 62.7306C42.9657 62.6803 43.1263 62.6608 43.2862 62.6732C43.4459 62.6837 43.6022 62.7256 43.746 62.7965C43.8898 62.8675 44.0183 62.9661 44.1241 63.0867C44.23 63.2073 44.311 63.3475 44.3627 63.4992C44.4143 63.6509 44.4355 63.8112 44.425 63.9708C44.4413 64.4119 44.3524 64.8501 44.1655 65.2489C43.9786 65.6477 43.6992 65.9958 43.3503 66.2642C43.2308 66.3295 43.1018 66.376 42.9679 66.4021ZM42.8965 60.2361C42.5799 60.2934 42.2527 60.2232 41.9862 60.0408C41.7197 59.8584 41.5354 59.5786 41.4735 59.2622C41.0117 56.9328 40.4221 54.7793 40.4162 54.7624L40.3691 54.5932C40.3077 54.4342 40.2801 54.2643 40.2881 54.0943C40.2962 53.9244 40.3396 53.7582 40.4157 53.6064C40.4918 53.4546 40.5988 53.3205 40.73 53.2128C40.8612 53.1051 41.0135 53.0261 41.1774 52.9808C41.3412 52.9356 41.5128 52.9252 41.6813 52.9501C41.8498 52.9751 42.0114 53.035 42.1558 53.1259C42.3002 53.2168 42.4241 53.3368 42.5197 53.4782C42.6153 53.6195 42.6804 53.7791 42.7108 53.9467L42.7577 54.0932C42.7872 54.2003 43.3826 56.3708 43.8568 58.7904C43.8885 58.9482 43.8889 59.1105 43.8578 59.2681C43.8266 59.4256 43.7647 59.5753 43.6755 59.7086C43.5863 59.8419 43.4715 59.9561 43.3378 60.0447C43.2042 60.1332 43.0541 60.1945 42.8964 60.2248L42.8965 60.2361ZM40.1729 50.8167C39.8933 50.8713 39.6028 50.8249 39.3531 50.6858C39.1034 50.5468 38.9105 50.3239 38.8088 50.0569C38.2501 48.626 37.6062 47.1448 36.8886 45.6471C36.7566 45.3546 36.7443 45.0227 36.8545 44.7227C36.9647 44.4227 37.1886 44.1786 37.4778 44.0429C37.7671 43.9072 38.0987 43.8907 38.4014 43.9971C38.704 44.1035 38.9534 44.3242 39.0959 44.6117C39.8253 46.1545 40.5268 47.7257 41.0858 49.1792C41.1993 49.4783 41.1915 49.8093 41.064 50.1014C40.9365 50.3934 40.6995 50.6234 40.4036 50.7419C40.3304 50.7769 40.2528 50.802 40.1729 50.8167ZM35.9989 41.9594C35.7339 42.0094 35.4594 41.9696 35.2187 41.8463C34.9779 41.723 34.7847 41.5232 34.6695 41.2785C33.9595 39.7491 33.3489 38.1759 32.8418 36.5688C32.7484 36.262 32.7789 35.9315 32.9268 35.6483C33.0748 35.3652 33.3283 35.152 33.6328 35.0547C33.9373 34.9574 34.2685 34.9837 34.5552 35.128C34.8418 35.2723 35.061 35.5231 35.1655 35.8263C35.6373 37.3318 36.2071 38.8054 36.8712 40.2375C36.943 40.3849 36.9845 40.5452 36.9933 40.7086C37.0021 40.8721 36.9779 41.0355 36.9223 41.1891C36.8667 41.3427 36.7807 41.4834 36.6694 41.6028C36.5582 41.7222 36.4239 41.818 36.2747 41.8843C36.1936 41.9246 36.1089 41.9573 36.0217 41.9818L35.9989 41.9594ZM32.7239 32.724C32.4472 32.7786 32.1595 32.7356 31.9098 32.6022C31.6602 32.4689 31.464 32.2534 31.3545 31.9925C30.7702 30.302 30.1774 28.8486 29.5973 27.5195C29.4673 27.2215 29.4607 26.8847 29.579 26.5833C29.6973 26.2818 29.9308 26.0403 30.2281 25.912C30.5255 25.7836 30.8622 25.7789 31.1644 25.8989C31.4665 26.0189 31.7093 26.2537 31.8393 26.5517C32.4593 27.9088 33.0816 29.4692 33.677 31.1484C33.7805 31.4475 33.7643 31.7745 33.6318 32.0606C33.4993 32.3468 33.2607 32.5698 32.9663 32.683C32.9025 32.7211 32.8318 32.7465 32.7582 32.7576L32.7239 32.724ZM28.7587 23.8597C28.5135 23.9047 28.2599 23.8738 28.0318 23.7713C27.8036 23.6688 27.6117 23.4995 27.4815 23.2858C25.9902 20.8046 25.0815 20.3583 24.917 20.2972L24.8656 20.2467C24.6899 20.1775 24.5321 20.0692 24.4042 19.93C24.2764 19.7908 24.1818 19.6245 24.1278 19.4436C24.0395 19.1342 24.0765 18.8031 24.2308 18.5221C24.385 18.2411 24.6441 18.0328 24.9519 17.9422C25.2458 17.8624 25.5593 17.8927 25.8338 18.0273C27.0083 18.5115 28.2606 19.8535 29.5676 22.0196C29.6505 22.157 29.7055 22.3091 29.7294 22.4675C29.7534 22.6258 29.7459 22.7871 29.7073 22.9421C29.6686 23.0972 29.5997 23.2429 29.5044 23.3709C29.4091 23.4989 29.2894 23.6066 29.152 23.688C29.0337 23.7707 28.9001 23.8291 28.7587 23.8597Z" fill="#EFDABD"/>
<path d="M45.8878 64.4252C45.5651 64.4815 45.2324 64.4107 44.9594 64.2275C44.6981 64.0348 44.5227 63.7472 44.4714 63.4272C44.4202 63.1072 44.4971 62.7805 44.6855 62.5182C45.4679 61.2908 45.9651 59.9026 46.1406 58.455C46.2021 58.1364 46.3878 57.8559 46.6568 57.6753C46.9258 57.4947 47.2562 57.4288 47.5751 57.492C47.8941 57.5552 48.1757 57.7424 48.3578 58.0124C48.5399 58.2824 48.6076 58.6131 48.5462 58.9317C48.2926 60.7318 47.6369 62.4495 46.6278 63.9577C46.447 64.199 46.1838 64.3653 45.8878 64.4252ZM47.9529 54.9995C47.8827 55.0161 47.8108 55.0241 47.7386 55.0234C47.4153 55.0247 47.1039 54.8979 46.8726 54.6707C46.6413 54.4435 46.5091 54.1344 46.5048 53.8111C46.4941 52.8851 46.4418 52.2755 46.4361 52.2699C46.3974 51.8523 46.336 51.4235 46.2688 50.9891C46.1616 50.4233 46.0212 49.8642 45.8485 49.3145C45.7528 49.0043 45.784 48.6695 45.9354 48.3837C46.0867 48.0979 46.3457 47.8846 46.6553 47.7906C46.965 47.6967 47.3 47.7298 47.5867 47.8826C47.8733 48.0355 48.0881 48.2957 48.1838 48.6059C48.3783 49.2439 48.5404 49.8913 48.6694 50.5454C48.7599 51.0475 48.8164 51.5384 48.8787 52.0462C48.8787 52.0462 48.9433 52.7461 48.9552 53.7737C48.9655 54.0656 48.8696 54.3507 48.6853 54.5761C48.501 54.8015 48.2407 54.9519 47.9529 54.9995ZM45.231 45.7268C44.9831 45.7702 44.7275 45.7369 44.4982 45.6314C44.2689 45.5258 44.077 45.353 43.9479 45.136C43.1589 43.7926 42.2482 42.524 41.2273 41.3464C41.0214 41.1004 40.9198 40.784 40.9442 40.4651C40.9687 40.1463 41.1174 39.8504 41.3583 39.6412C41.5992 39.4319 41.9131 39.3259 42.2325 39.346C42.552 39.3661 42.8515 39.5107 43.0667 39.7486C44.1859 41.043 45.1832 42.4377 46.0458 43.9149C46.1282 44.0529 46.1826 44.2057 46.2057 44.3645C46.2289 44.5233 46.2204 44.6849 46.1807 44.84C46.141 44.9951 46.0709 45.1407 45.9745 45.2683C45.8781 45.3959 45.7573 45.5029 45.619 45.5833C45.4933 45.6576 45.3568 45.7118 45.2142 45.7439L45.231 45.7268ZM39.7559 37.6566C39.4721 37.7077 39.1789 37.6566 38.9281 37.5124C38.6773 37.3682 38.4852 37.1402 38.3858 36.8687C38.072 35.9944 37.8275 35.0971 37.6545 34.1852C37.5311 33.5186 37.4423 32.8463 37.3884 32.1709L37.341 31.9792C37.3017 31.8233 37.2935 31.6614 37.3168 31.5027C37.3401 31.3441 37.3945 31.1917 37.4768 31.0543C37.5591 30.917 37.6677 30.7973 37.7965 30.7022C37.9253 30.6071 38.0717 30.5384 38.2274 30.5C38.383 30.4616 38.5449 30.4543 38.7038 30.4785C38.8626 30.5027 39.0153 30.5579 39.1531 30.6409C39.2909 30.724 39.4112 30.8333 39.507 30.9626C39.6029 31.0919 39.6724 31.2387 39.7116 31.3946L39.7886 31.7047C39.8076 31.7804 39.818 31.858 39.8196 31.936C39.8664 32.5569 39.9489 33.1749 40.0669 33.7867C40.2081 34.5686 40.4134 35.3379 40.6808 36.0869C40.7843 36.386 40.7681 36.713 40.6356 36.9991C40.503 37.2853 40.2645 37.5083 39.9701 37.6215L39.7559 37.6566ZM37.2301 28.2529C36.9553 28.3012 36.6718 28.2538 36.4267 28.1186C36.1816 27.9834 35.9898 27.7687 35.8831 27.51C35.3096 26.0923 34.5598 24.7517 33.6515 23.5199C33.5046 23.2608 33.4569 22.9577 33.5172 22.6671C33.5775 22.3766 33.7418 22.1186 33.9792 21.9413C34.2167 21.7641 34.5111 21.6798 34.8073 21.7042C35.1035 21.7286 35.3813 21.86 35.5887 22.0739C36.6176 23.4796 37.4715 25.0048 38.1316 26.6156C38.2533 26.9146 38.253 27.2488 38.1308 27.5463C38.0085 27.8438 37.7741 28.0808 37.478 28.2063C37.3925 28.2375 37.3037 28.2588 37.2133 28.27L37.2301 28.2529ZM31.2141 20.7789C30.9447 20.8297 30.6655 20.7876 30.4221 20.6595C29.2637 20.0202 27.9313 19.7726 26.6248 19.9539C26.3119 20.0374 25.9781 19.9931 25.6966 19.8307C25.4152 19.6682 25.2091 19.401 25.1239 19.0877C25.0386 18.7745 25.0811 18.4409 25.242 18.1604C25.403 17.8798 25.6691 17.6753 25.9819 17.5918L26.0265 17.5463L26.173 17.5116C28.0101 17.2546 29.8843 17.5999 31.5152 18.4958C31.7388 18.6153 31.9202 18.8011 32.0343 19.0275C32.1484 19.2539 32.1896 19.5098 32.1522 19.7598C32.1148 20.0097 32.0006 20.2415 31.8255 20.4231C31.6504 20.6047 31.4229 20.7271 31.1745 20.7735L31.2141 20.7789Z" fill="#EFDABD"/>
<path d="M63.0216 32.818C62.7339 32.8737 62.4351 32.824 62.1798 32.6779C61.9246 32.5318 61.73 32.299 61.6315 32.0221C61.5331 31.7451 61.5374 31.4426 61.6436 31.1697C61.7499 30.8969 61.951 30.6719 62.2102 30.5359C63.1319 30.0166 64.1888 29.7842 65.2463 29.8682C65.3064 29.8722 65.3655 29.8852 65.4218 29.9066C65.7374 29.9939 66.0066 30.2016 66.1715 30.4847C66.3364 30.7679 66.3838 31.1039 66.3033 31.4203C66.2266 31.7154 66.04 31.9694 65.7816 32.1305C65.5232 32.2915 65.2125 32.3475 64.9129 32.287C64.3764 32.3042 63.852 32.4466 63.3817 32.7028C63.2667 32.7554 63.1459 32.794 63.0216 32.818Z" fill="#EFDABD"/>
<path d="M55.2997 59.4161C54.9879 59.4742 54.6651 59.4086 54.3995 59.2332C54.134 59.0577 53.9466 58.7861 53.8771 58.476L53.7693 57.9459C53.5706 56.8798 53.5052 56.1122 53.4993 56.084C53.4272 55.1429 53.4637 54.1972 53.6078 53.2656C53.6646 52.9536 53.8407 52.6766 54.0989 52.4933C54.357 52.31 54.677 52.2347 54.991 52.2835C55.3049 52.3322 55.5883 52.5011 55.781 52.7545C55.9737 53.0078 56.0607 53.3256 56.0235 53.6407C55.9061 54.3873 55.877 55.1455 55.9367 55.8999C55.9367 55.8999 55.9953 56.5715 56.1698 57.5022C56.1941 57.6489 56.2298 57.8068 56.2655 57.9647C56.3335 58.2818 56.2729 58.6122 56.0971 58.8832C55.9213 59.1543 55.6446 59.3439 55.3279 59.4103L55.2997 59.4161ZM56.5478 50.1477C56.2906 50.1991 56.0232 50.1609 55.7898 50.0394C55.6446 49.9675 55.515 49.8674 55.4087 49.7449C55.3024 49.6225 55.2215 49.4802 55.1708 49.3264C55.1201 49.1725 55.1006 49.0103 55.1134 48.8492C55.1263 48.6881 55.1712 48.5313 55.2455 48.3881C55.5774 47.6989 55.9545 47.0327 56.3744 46.3936C56.7726 45.7832 57.036 45.0945 57.1473 44.3731C57.2485 44.103 57.4424 43.8781 57.6944 43.7383C57.9465 43.5985 58.2405 43.5528 58.5241 43.6093C58.8078 43.6658 59.0628 43.8209 59.2439 44.047C59.4249 44.2731 59.5204 44.5556 59.5133 44.8444C59.3402 45.908 58.9418 46.9211 58.3448 47.8161C57.9967 48.348 57.6843 48.9026 57.4097 49.4762C57.3296 49.6485 57.2098 49.7992 57.06 49.9159C56.9102 50.0327 56.7346 50.1121 56.5478 50.1477ZM58.7856 41.0146C58.6593 41.039 58.5298 41.0435 58.4018 41.0282C58.2425 41.0077 58.0887 40.9559 57.9492 40.8757C57.8098 40.7955 57.6874 40.6885 57.5893 40.561C57.4912 40.4334 57.4193 40.2879 57.3777 40.1326C57.336 39.9774 57.3256 39.8157 57.3468 39.6567C57.5311 37.9476 57.9606 36.2753 58.6221 34.6911C58.6816 34.5377 58.7717 34.398 58.8869 34.2806C59.002 34.1632 59.1399 34.0705 59.2921 34.0079C59.4444 33.9454 59.6079 33.9145 59.7728 33.9169C59.9377 33.9193 60.1006 33.9551 60.2517 34.0221C60.4028 34.0891 60.5389 34.1859 60.6519 34.3067C60.7648 34.4274 60.8523 34.5697 60.909 34.7249C60.9657 34.88 60.9904 35.0449 60.9818 35.2095C60.9731 35.3741 60.9312 35.5351 60.8585 35.6828C60.2985 37.0621 59.937 38.5149 59.7847 39.9978C59.7502 40.2527 59.6344 40.4893 59.4544 40.6725C59.2744 40.8556 59.0399 40.9756 58.7856 41.0146Z" fill="#EFDABD"/>
<path d="M59.0439 65.2831C58.8854 65.3133 58.7224 65.3124 58.5639 65.2804C58.5 65.2652 58.4374 65.2448 58.3768 65.2194C57.3766 64.8967 56.5081 64.2552 55.9048 63.3934C55.7825 63.269 55.688 63.1201 55.6277 62.9566C55.5674 62.793 55.5426 62.6187 55.555 62.4453C55.5675 62.2718 55.6168 62.1032 55.6998 61.9507C55.7828 61.7983 55.8975 61.6655 56.0362 61.5612C56.1749 61.457 56.3345 61.3837 56.5042 61.3462C56.6739 61.3088 56.8498 61.308 57.0203 61.3441C57.1907 61.3801 57.3516 61.4521 57.4924 61.5552C57.6331 61.6582 57.7504 61.7901 57.8363 61.9418C58.1442 62.4019 58.5979 62.7453 59.1238 62.9166C59.3901 62.9908 59.6239 63.1528 59.7871 63.3762C59.9504 63.5996 60.0335 63.8712 60.023 64.147C60.0124 64.4227 59.9088 64.6862 59.729 64.8945C59.5492 65.1029 59.3038 65.2439 59.0327 65.2945L59.0439 65.2831Z" fill="#EFDABD"/>
<path d="M64.5747 34.2317C64.3564 34.2741 64.1303 34.2556 63.9211 34.1782C63.7119 34.1008 63.5278 33.9675 63.3888 33.7929C63.2498 33.6182 63.1612 33.409 63.1329 33.1881C63.1045 32.9671 63.1374 32.743 63.228 32.5402C64.2184 30.2867 65.2531 29.9078 65.943 29.994C66.0257 30.0017 66.1073 30.0182 66.1864 30.0434C66.4378 30.1279 66.6556 30.2911 66.8074 30.5087C66.9593 30.7264 67.0372 30.9868 67.0295 31.2514C67.0218 31.5159 66.9289 31.7705 66.7646 31.9771C66.6003 32.1838 66.3735 32.3316 66.1177 32.3985C65.8442 32.7411 65.624 33.1231 65.4645 33.5318C65.3842 33.7121 65.2614 33.8699 65.1064 33.9918C64.9514 34.1138 64.7689 34.1961 64.5747 34.2317Z" fill="#EFDABD"/>
<path d="M59.2298 58.9238C59.1256 58.9426 59.0193 58.947 58.9137 58.937C58.7539 58.9252 58.5979 58.8819 58.4545 58.8096C58.3112 58.7373 58.1835 58.6374 58.0787 58.5157C57.9738 58.3941 57.894 58.253 57.8438 58.1006C57.7936 57.9483 57.774 57.7877 57.7861 57.628C57.8248 57.0744 57.8604 56.7298 57.8604 56.7298C57.9734 55.5775 58.1467 54.4324 58.3797 53.299C58.4128 53.1401 58.4768 52.9894 58.5682 52.8556C58.6596 52.7218 58.7765 52.6074 58.9124 52.519C59.0482 52.4306 59.2003 52.37 59.3599 52.3405C59.5195 52.311 59.6835 52.3132 59.8426 52.3471C60.0017 52.381 60.1528 52.4459 60.2871 52.538C60.4215 52.6301 60.5365 52.7477 60.6256 52.884C60.7148 53.0203 60.7763 53.1727 60.8067 53.3325C60.8371 53.4923 60.8357 53.6563 60.8027 53.8152C60.5883 54.8687 60.4272 55.9326 60.32 57.0029L60.2508 57.8503C60.2228 58.1172 60.1077 58.367 59.9231 58.561C59.7386 58.7551 59.4949 58.8825 59.2298 58.9238ZM60.8111 50.6416C60.6053 50.6833 60.3918 50.6703 60.1919 50.604C59.992 50.5378 59.8125 50.4205 59.6715 50.2638C59.5304 50.1071 59.4325 49.9165 59.3876 49.7109C59.3426 49.5052 59.3522 49.2917 59.4153 49.0915C59.714 48.0676 59.9325 47.4225 59.9325 47.4225C60.1783 46.6752 60.3732 45.9119 60.5159 45.1377C60.545 44.9798 60.6052 44.8295 60.6931 44.6954C60.7809 44.5613 60.8945 44.4461 61.0275 44.3566C61.1604 44.267 61.3099 44.2048 61.4674 44.1736C61.6248 44.1424 61.7871 44.1428 61.9448 44.1748C62.262 44.2393 62.5417 44.4259 62.7234 44.6943C62.9051 44.9627 62.9742 45.2912 62.9157 45.6089C62.7515 46.499 62.5238 47.376 62.2346 48.2331C62.2346 48.2331 62.0326 48.8385 61.75 49.7889C61.6882 50.0044 61.5677 50.1982 61.4019 50.3487C61.2362 50.4992 61.0317 50.6006 60.8111 50.6416ZM62.5454 42.398C62.4054 42.4206 62.2629 42.4233 62.122 42.4062C61.8022 42.35 61.5167 42.1706 61.3267 41.9067C61.1367 41.6428 61.0575 41.3154 61.1061 40.995C61.3591 39.435 61.6307 38.016 61.8985 36.7607C61.9276 36.5979 61.9896 36.4428 62.0806 36.305C62.1716 36.1672 62.2898 36.0494 62.428 35.9589C62.5661 35.8685 62.7214 35.8071 62.8844 35.7786C63.0474 35.7501 63.2146 35.755 63.376 35.7931C63.5374 35.8312 63.6895 35.9017 63.8231 36.0003C63.9567 36.0988 64.0691 36.2234 64.1533 36.3664C64.2376 36.5094 64.292 36.6679 64.3132 36.8322C64.3344 36.9966 64.322 37.1633 64.2768 37.3224C64.0025 38.5042 63.7472 39.8723 63.4993 41.3815C63.4628 41.6283 63.3521 41.8578 63.1817 42.0393C63.0113 42.2209 62.7894 42.346 62.5454 42.398Z" fill="#EFDABD"/>
<path d="M59.7513 65.4201C59.6528 65.4379 59.5524 65.4442 59.4523 65.4388C59.274 65.4292 59.0998 65.3801 58.9424 65.2951C57.954 64.7928 57.7516 63.4106 57.6901 61.9992C57.6736 61.6751 57.7865 61.3584 58.0041 61.1188C58.2216 60.8792 58.5258 60.7364 58.8499 60.7217C59.174 60.707 59.4913 60.8217 59.7322 61.0405C59.973 61.2593 60.1175 61.5644 60.134 61.8885C60.1382 62.362 60.1987 62.8336 60.314 63.2935C60.4925 63.4424 60.6252 63.6387 60.6967 63.8596C60.7682 64.0805 60.7754 64.3169 60.7176 64.541C60.6598 64.7652 60.5394 64.9679 60.3703 65.1255C60.2012 65.2832 59.9905 65.3892 59.7628 65.4313L59.7513 65.4201Z" fill="#EFDABD"/>
<path d="M60.6557 65.5161C60.3711 65.5676 60.0769 65.5162 59.8255 65.3712C59.5742 65.2262 59.382 64.9969 59.2832 64.7242C59.1844 64.4516 59.1855 64.1532 59.2863 63.8824C59.387 63.6115 59.5808 63.3858 59.8332 63.2454C59.9337 63.1431 60.5022 62.496 61.5025 59.6383C61.5543 59.4857 61.6358 59.3451 61.7423 59.2246C61.8488 59.104 61.9783 59.0059 62.1233 58.9358C62.2682 58.8657 62.4258 58.8252 62.5869 58.8164C62.7479 58.8077 62.9093 58.8309 63.0617 58.8848C63.2141 58.9387 63.3544 59.0222 63.4747 59.1304C63.5949 59.2386 63.6927 59.3695 63.7623 59.5154C63.8319 59.6614 63.872 59.8195 63.8802 59.9806C63.8885 60.1418 63.8647 60.3028 63.8104 60.4544C62.4653 64.2685 61.6447 65.0923 60.9316 65.441C60.8423 65.475 60.75 65.5002 60.6557 65.5161ZM64.2112 56.5387C64.0546 56.5679 63.894 56.5688 63.7368 56.5416C63.4209 56.4686 63.1458 56.274 62.9714 56.0002C62.7969 55.7263 62.7372 55.3953 62.8051 55.0791C63.1199 53.5273 63.3525 51.9595 63.5018 50.3823C63.5113 50.2184 63.5538 50.0583 63.6267 49.9115C63.6997 49.7647 63.8015 49.6343 63.9262 49.5281C64.0509 49.4219 64.1959 49.342 64.3524 49.2932C64.509 49.2445 64.674 49.2278 64.8375 49.2443C65.0011 49.2608 65.1598 49.3101 65.3042 49.3892C65.4486 49.4683 65.5757 49.5756 65.6779 49.7047C65.7802 49.8338 65.8555 49.9821 65.8993 50.1406C65.9431 50.2991 65.9545 50.4647 65.9329 50.6274C65.8112 51.8253 65.6008 53.6505 65.2053 55.5841C65.1583 55.8262 65.0386 56.0479 64.862 56.2194C64.6854 56.391 64.4603 56.5044 64.2169 56.5444L64.2112 56.5387ZM65.4488 46.8582C65.2944 46.8912 65.1345 46.8902 64.9801 46.8554C64.8228 46.8229 64.6735 46.7597 64.5405 46.6693C64.4076 46.5789 64.2937 46.4631 64.2055 46.3287C64.1173 46.1943 64.0565 46.0439 64.0267 45.8862C63.9968 45.7285 63.9985 45.5666 64.0316 45.4099C64.2271 44.4252 64.4722 43.4512 64.7658 42.4917C64.9001 41.898 65.0339 41.2591 65.1681 40.6541C65.2375 40.3419 65.4268 40.0701 65.6954 39.8972C65.9639 39.7243 66.2902 39.6641 66.604 39.7296C66.9178 39.795 67.1941 39.9809 67.3734 40.2472C67.5526 40.5135 67.6206 40.8389 67.5626 41.1535C67.4342 41.7754 67.295 42.4313 67.128 43.1268C67.1064 43.2173 66.7309 44.4337 66.4372 45.898C66.3916 46.1403 66.2732 46.3626 66.0976 46.5352C65.922 46.7078 65.6977 46.8224 65.4545 46.8639L65.4488 46.8582ZM67.3146 37.2925C67.2053 37.3157 67.093 37.3221 66.9816 37.3115C66.8218 37.2983 66.6659 37.2536 66.5231 37.18C66.3803 37.1064 66.2533 37.0053 66.1495 36.8825C66.0457 36.7597 65.9671 36.6178 65.9183 36.4648C65.8695 36.3118 65.8514 36.1509 65.8652 35.9912C65.9844 34.9382 65.9664 33.8735 65.8116 32.8236C65.7825 32.5799 65.7048 32.3442 65.5833 32.1305C65.5209 32.0459 65.4668 31.9554 65.4221 31.8604C65.3997 31.8154 65.3821 31.7682 65.3696 31.7195L65.3227 31.573C65.2916 31.3966 65.2972 31.2158 65.3392 31.0421C65.3792 30.8873 65.4495 30.7422 65.546 30.615C65.6424 30.4878 65.7633 30.3811 65.9014 30.301C66.0396 30.2209 66.1924 30.169 66.351 30.1484C66.5096 30.1277 66.671 30.1386 66.8257 30.1805C66.9829 30.2201 67.1308 30.2905 67.2609 30.3876C67.3909 30.4847 67.5005 30.6066 67.5833 30.7462C67.9102 31.2428 68.1249 31.8043 68.2122 32.3913C68.4058 33.6573 68.4339 34.9422 68.296 36.2137C68.2725 36.4764 68.164 36.7238 67.9869 36.9185C67.8098 37.1132 67.5738 37.2445 67.3146 37.2925Z" fill="#EFDABD"/>
<path d="M64.9586 64.0052C64.7016 64.0487 64.437 64.0093 64.2029 63.8927C63.9689 63.7761 63.7776 63.5882 63.6567 63.3563C63.5358 63.1245 63.4916 62.8606 63.5305 62.6028C63.5693 62.345 63.6893 62.1067 63.8729 61.9224C64.9156 60.8343 65.8056 59.6095 66.5188 58.2812C66.6797 58.0104 66.9396 57.813 67.2439 57.7304C67.5482 57.6478 67.8733 57.6864 68.1511 57.8381C68.4289 57.9897 68.6377 58.2427 68.7339 58.544C68.8301 58.8452 68.8061 59.1714 68.667 59.454C67.8501 61.0042 66.8235 62.4335 65.6158 63.7019C65.4298 63.8627 65.2021 63.9677 64.9586 64.0052ZM69.1227 55.4025C69.0147 55.4212 68.9046 55.4256 68.7953 55.4158C68.472 55.3865 68.1726 55.2308 67.9624 54.9824C67.7522 54.7341 67.6482 54.4133 67.6731 54.0899C67.7818 52.6469 67.6986 51.1948 67.4255 49.7716C67.4349 49.708 67.438 49.6437 67.4346 49.5795C67.3986 49.4225 67.3939 49.2602 67.4207 49.1017C67.4476 48.9432 67.5054 48.7918 67.5908 48.656C67.6763 48.5202 67.7878 48.4027 67.9189 48.3102C68.05 48.2178 68.1982 48.1521 68.355 48.1171C68.5119 48.082 68.6742 48.0782 68.8328 48.1059C68.9915 48.1336 69.1433 48.1922 69.2795 48.2784C69.4158 48.3647 69.534 48.4768 69.6272 48.6084C69.7204 48.74 69.7868 48.8886 69.8228 49.0456L69.8826 49.3389C70.1757 50.9711 70.2595 52.6329 70.1318 54.284C70.114 54.5573 70.0048 54.8161 69.8218 55.019C69.6388 55.2218 69.3926 55.3569 69.1227 55.4025ZM69.4629 45.7669C69.2336 45.8146 68.9947 45.7904 68.7788 45.6977C68.6297 45.6371 68.4939 45.5478 68.379 45.4349C68.2642 45.322 68.1726 45.1877 68.1095 45.0396C68.0464 44.8916 68.0131 44.7327 68.0114 44.5721C68.0097 44.4115 68.0397 44.2524 68.0997 44.1037C68.2975 43.6282 68.4685 43.2827 68.5569 43.1127C68.9125 42.0053 69.1789 40.8707 69.3534 39.7198C69.374 39.5612 69.426 39.4084 69.5064 39.2703C69.5868 39.1323 69.6939 39.0118 69.8216 38.9159C69.9493 38.82 70.0949 38.7506 70.25 38.7117C70.4051 38.6728 70.5666 38.6653 70.725 38.6895C70.884 38.7122 71.0371 38.7661 71.1756 38.8479C71.3141 38.9297 71.4352 39.0379 71.5322 39.1663C71.6291 39.2947 71.6999 39.4408 71.7405 39.5963C71.7811 39.7517 71.7907 39.9135 71.7688 40.0723C71.5697 41.4019 71.2561 42.7112 70.8315 43.9856C70.8105 44.0604 70.781 44.1326 70.7436 44.2007C70.7436 44.2007 70.5612 44.535 70.3469 45.0501C70.2718 45.2344 70.1515 45.3967 69.9971 45.5219C69.8426 45.6472 69.6589 45.7314 69.4629 45.7669ZM70.5275 36.2625C70.2301 36.3172 69.9223 36.2602 69.6631 36.1023C69.4039 35.9445 69.2116 35.6969 69.1228 35.407C68.9735 34.8029 68.69 34.2396 68.2933 33.759C67.8966 33.2784 67.3971 32.8929 66.8318 32.6313C66.5398 32.5236 66.2979 32.3109 66.1537 32.035C66.0094 31.759 65.9733 31.4396 66.0522 31.1396C66.0931 30.9864 66.164 30.843 66.2606 30.7175C66.3573 30.5921 66.4779 30.4871 66.6155 30.4086C66.7532 30.3302 66.9051 30.2797 67.0626 30.2602C67.22 30.2407 67.38 30.2525 67.5333 30.2949L67.5675 30.3286C67.618 30.3381 67.6674 30.353 67.7149 30.3729C68.6198 30.77 69.425 31.3649 70.071 32.1136C70.717 32.8623 71.1872 33.7457 71.4469 34.6985C71.5448 35.0079 71.516 35.3428 71.3668 35.6297C71.2176 35.9165 70.9603 36.1317 70.6514 36.2279L70.5275 36.2625Z" fill="#EFDABD"/>
</g>
<defs>
<clipPath id="clip0_407_554">
<rect width="54.8776" height="66.5537" fill="white" transform="translate(0 39.1443) rotate(-45.5043)"/>
</clipPath>
</defs>
</svg>
