<svg width="58" height="51" viewBox="0 0 58 51" fill="none" xmlns="http://www.w3.org/2000/svg">
<g clip-path="url(#clip0_407_526)">
<path d="M35.0861 21.3417C35.0861 21.3417 49.2912 15.4999 50.7393 13.1687C50.7393 13.1687 58.8553 20.4319 57.0266 34.0334C57.0266 34.0334 55.917 46.4644 41.2191 49.0466L34.0193 49.2126C36.0718 44.8803 37.2246 40.1768 37.4079 35.3864C37.5913 30.596 36.8014 25.8182 35.0861 21.3417Z" fill="#638B3F"/>
<path d="M34.3293 49.3423C34.3293 49.3423 48.8052 20.4402 17.0737 6.61661C17.0737 6.61661 6.63016 2.3753 6.40901 0.995481C6.40901 0.995481 -1.79893 15.4823 2.00077 27.1292C2.00077 27.1292 6.42019 50.4555 34.3293 49.3423Z" fill="#B2DB8A"/>
<path d="M11.4521 16.3413C11.4521 16.3413 33.3641 42.7131 33.3303 50.1731C33.3303 50.1731 27.7106 26.4878 11.4521 16.3413Z" fill="#638B3F"/>
<path d="M37.9106 37.9692C37.9106 37.9692 42.9019 27.445 46.821 26.3617C46.821 26.3617 38.2524 40.1189 37.595 43.1994C36.9376 46.28 37.9106 37.9692 37.9106 37.9692Z" fill="#82AF58"/>
</g>
<defs>
<clipPath id="clip0_407_526">
<rect width="56.29" height="49.2" fill="white" transform="translate(0.979492 1) rotate(-0.047695)"/>
</clipPath>
</defs>
</svg>
