<svg width="218" height="208" viewBox="0 0 218 208" fill="none" xmlns="http://www.w3.org/2000/svg">
<path d="M194.494 138.779C193.847 137.771 192.954 136.944 191.9 136.376C190.845 135.808 189.663 135.518 188.465 135.533L181.187 123.966C184.762 117.171 187.183 109.829 188.35 102.24C188.472 101.456 188.593 100.672 188.668 99.9282C190.466 84.3353 186.971 68.5911 178.744 55.2233L187.961 49.0833L182.862 46.688L182.915 46.6561L187.967 49.044L175.205 27.7056L161.574 35.8935C151.302 27.7795 139.095 22.4759 126.153 20.5032C85.7732 14.2568 48.1373 40.8745 42.0867 79.9519C41.9653 80.7363 41.8438 81.5207 41.7321 82.2423C41.3636 85.3958 41.2102 88.5707 41.2729 91.7449L27.049 98.4195C26.0719 97.7408 24.9362 97.3256 23.7517 97.2141C22.5671 97.1026 21.3738 97.2986 20.2871 97.7831C16.2632 99.6987 14.5806 105.326 16.5193 110.444C18.458 115.563 23.2974 118.135 27.3177 116.243C28.4328 115.669 29.4006 114.845 30.146 113.836C30.8915 112.828 31.3946 111.661 31.6164 110.427L42.8792 105.133C47.7899 127.634 63.6843 146.903 85.6286 156.362L83.1461 172.394C78.3819 172.035 74.3443 174.245 73.8173 177.649C73.2537 181.289 77.0022 184.889 82.2114 185.694C87.4207 186.5 92.0824 184.202 92.6459 180.562C92.6831 180.315 92.7003 180.065 92.6973 179.815L92.7601 179.825L95.8425 159.917C98.6299 160.675 101.457 161.276 104.312 161.717C105.661 161.926 107.009 162.094 108.346 162.229L105.175 182.709L105.237 182.719C105.159 182.953 105.1 183.194 105.062 183.438C104.498 187.078 108.247 190.678 113.456 191.483C118.665 192.289 123.327 189.991 123.89 186.351C124.415 182.963 121.214 179.616 116.587 178.523L119.056 162.577C129.567 162.205 139.877 159.597 149.3 154.926C158.722 150.255 167.04 143.629 173.699 135.49L178.497 143.099C178.046 144.288 177.866 145.562 177.971 146.829C178.077 148.097 178.465 149.324 179.107 150.422C181.525 154.257 186.948 154.775 191.219 151.572C195.491 148.37 196.91 142.63 194.494 138.779ZM111.958 112.181C99.8448 110.307 91.4618 99.2838 93.2775 87.5575C93.3382 87.1653 93.3989 86.7731 93.5055 86.396C95.9514 75.8916 106.08 68.7923 117.159 69.8717C118.364 72.4675 120.551 75.1511 124.216 74.6739C125.394 74.5722 126.526 74.166 127.499 73.4951C130.96 75.7279 133.703 78.9101 135.402 82.6611C137.1 86.4121 137.682 90.5731 137.077 94.6462C137.018 95.0305 136.956 95.4306 136.852 95.7919C134.397 106.721 123.561 113.976 111.958 112.181Z" fill="#724D38"/>
<path d="M112.741 195.79C105.052 194.601 99.7772 188.878 100.723 182.767C100.745 182.626 100.768 182.477 100.79 182.336C100.812 182.195 100.82 182.14 100.836 182.038L103.322 165.982C102.02 165.78 100.716 165.538 99.4167 165.265L97.0593 180.49C97.0423 180.6 97.0266 180.702 97.012 180.796C96.9974 180.89 96.967 181.086 96.9452 181.227C95.9991 187.337 89.2397 191.199 81.5592 190.011C73.8786 188.823 68.5955 183.098 69.5416 176.988C70.2375 172.494 74.22 169.134 79.4122 168.234L80.8501 158.948C71.1107 154.277 62.4509 147.63 55.4223 139.43C48.3937 131.23 43.1502 121.656 40.0258 111.318L35.2367 113.557C34.1528 116.46 31.993 118.835 29.2051 120.189C27.821 120.833 26.3179 121.182 24.7917 121.212C23.2656 121.243 21.7497 120.956 20.3409 120.368C18.5281 119.585 16.8956 118.438 15.5446 116.998C14.1936 115.558 13.153 113.856 12.4872 111.997C9.70373 104.708 12.3392 96.7143 18.5085 93.8617C19.86 93.2272 21.3272 92.8764 22.8195 92.831C24.3118 92.7855 25.7976 93.0464 27.1851 93.5976L37.0421 88.9782C37.0847 86.6797 37.2329 84.3735 37.4886 82.0999C37.5068 81.9823 37.5262 81.8568 37.5456 81.7313C37.6671 80.9469 37.7566 80.1094 37.8829 79.2936C44.1898 37.8865 84.1268 9.58479 126.821 16.1892C139.488 18.1375 151.505 23.089 161.867 30.63L172.908 24.0173C173.902 23.4226 175.091 23.2463 176.215 23.5271C177.339 23.8078 178.305 24.5226 178.902 25.5147L191.704 46.8592L191.766 46.8689C192.192 47.6198 192.386 48.48 192.322 49.3408C192.259 50.2016 191.942 51.0244 191.411 51.7052C191.271 51.894 191.112 52.0685 190.937 52.2262C190.756 52.398 190.56 52.5531 190.351 52.6897L184.565 56.5414C191.785 69.8235 194.743 85.0049 193.039 100.026C193.028 100.15 193.009 100.273 192.982 100.395C192.887 101.215 192.776 102.034 192.65 102.849C191.55 110.072 189.38 117.091 186.212 123.675L191.075 131.391C192.537 131.702 193.923 132.304 195.148 133.162C196.373 134.019 197.413 135.114 198.207 136.381C201.862 142.191 199.916 150.348 193.778 154.972C192.256 156.16 190.503 157.02 188.632 157.496C186.761 157.973 184.811 158.056 182.906 157.74C181.358 157.468 179.885 156.875 178.58 155.999C177.276 155.124 176.169 153.985 175.331 152.657C173.707 149.999 173.135 146.832 173.726 143.774L173.034 142.688C159.775 156.573 141.872 165.098 122.733 166.639L121.338 175.652C126.023 178.079 128.795 182.484 128.099 186.978C127.181 193.117 120.421 196.978 112.741 195.79ZM109.569 182.706C109.572 183.156 109.503 183.604 109.364 184.032C109.243 184.816 110.906 186.68 114.06 187.168C117.214 187.655 119.371 186.383 119.48 185.677C119.568 185.112 118.317 183.433 115.481 182.761C114.414 182.507 113.481 181.861 112.869 180.951C112.257 180.04 112.01 178.933 112.177 177.849L114.647 161.895C114.804 160.894 115.302 159.978 116.059 159.304C116.815 158.63 117.782 158.24 118.794 158.199C128.685 157.863 138.389 155.415 147.256 151.022C156.123 146.628 163.949 140.39 170.207 132.725C170.644 132.185 171.203 131.756 171.839 131.476C172.475 131.195 173.168 131.071 173.862 131.112C174.555 131.153 175.229 131.359 175.827 131.713C176.425 132.067 176.929 132.559 177.299 133.147L182.097 140.756C182.442 141.307 182.66 141.927 182.736 142.572C182.811 143.217 182.741 143.871 182.532 144.486C182.298 145.059 182.192 145.676 182.223 146.294C182.253 146.913 182.419 147.517 182.709 148.063C182.904 148.373 183.163 148.636 183.469 148.836C183.775 149.036 184.121 149.167 184.482 149.221C185.197 149.31 185.922 149.253 186.613 149.052C187.305 148.851 187.948 148.51 188.503 148.052C191.166 146.055 191.84 142.794 190.782 141.112C190.516 140.729 190.156 140.42 189.736 140.214C189.317 140.009 188.852 139.914 188.386 139.938C187.657 139.928 186.943 139.736 186.308 139.38C185.673 139.024 185.137 138.514 184.749 137.898L177.471 126.331C177.073 125.68 176.852 124.936 176.829 124.173C176.806 123.411 176.982 122.655 177.341 121.982C180.689 115.611 182.957 108.729 184.053 101.616C184.146 101.012 184.241 100.4 184.335 99.796C184.35 99.694 184.366 99.592 184.383 99.4822C186.096 84.8555 182.819 70.0794 175.083 57.5482C174.494 56.5873 174.3 55.4356 174.543 54.335C174.785 53.2343 175.444 52.2702 176.382 51.6453L179.553 49.5335C178.883 48.7162 178.531 47.6837 178.563 46.627C178.595 45.5703 179.009 44.561 179.728 43.7859L173.719 33.7726L163.882 39.6641C163.108 40.1316 162.208 40.3472 161.305 40.281C160.403 40.2148 159.544 39.8702 158.846 39.2947C149.161 31.6724 137.669 26.6851 125.485 24.8173C87.5451 18.9483 52.0824 43.9826 46.4095 80.6207C46.316 81.2246 46.2225 81.8286 46.1302 82.4247C46.1215 82.5303 46.1053 82.6352 46.0816 82.7385C45.7497 85.7021 45.6206 88.6849 45.6954 91.6661C45.711 92.5108 45.482 93.342 45.0359 94.0596C44.5899 94.7772 43.9458 95.3505 43.1814 95.7106L28.8988 102.4C28.2282 102.712 27.4896 102.85 26.7515 102.801C26.0135 102.751 25.2999 102.516 24.6771 102.117C24.3241 101.839 23.9055 101.657 23.4616 101.588C23.0177 101.52 22.5636 101.567 22.1431 101.725C20.4137 102.517 19.3835 105.643 20.5991 108.843C20.8448 109.576 21.2338 110.254 21.7436 110.836C22.2533 111.418 22.8736 111.893 23.5685 112.234C23.8657 112.373 24.1897 112.447 24.518 112.449C24.8463 112.451 25.1713 112.382 25.4704 112.247C25.9751 111.945 26.4065 111.536 26.7336 111.047C27.0606 110.559 27.2751 110.004 27.3616 109.423C27.5098 108.774 27.8035 108.168 28.2206 107.649C28.6376 107.131 29.1671 106.714 29.769 106.43L41.0318 101.137C41.6251 100.857 42.2739 100.714 42.9299 100.72C43.5859 100.726 44.2322 100.879 44.8205 101.17C45.4088 101.46 45.9239 101.879 46.3276 102.396C46.7312 102.913 47.0129 103.515 47.1516 104.156C51.8015 125.436 66.8316 143.438 87.3725 152.31C88.2585 152.694 88.9922 153.361 89.4587 154.206C89.9252 155.052 90.0983 156.028 89.9508 156.982L87.4611 173.062C87.2945 174.147 86.7246 175.129 85.8653 175.812C85.0059 176.495 83.9205 176.828 82.8258 176.746C79.9271 176.53 78.2196 177.752 78.1322 178.317C78.0253 179.007 79.6942 180.888 82.8559 181.377C86.0175 181.866 88.1668 180.592 88.2761 179.886C88.2759 179.42 88.3476 178.957 88.4887 178.513L91.4727 159.241C91.5686 158.635 91.7911 158.055 92.1257 157.539C92.4604 157.024 92.8997 156.585 93.4151 156.25C93.9305 155.916 94.5105 155.693 95.1175 155.597C95.7245 155.501 96.3449 155.534 96.9383 155.694C99.5662 156.411 102.233 156.979 104.925 157.395C106.157 157.585 107.428 157.782 108.73 157.879C109.32 157.938 109.892 158.116 110.411 158.403C110.93 158.69 111.384 159.08 111.747 159.549C112.11 160.018 112.373 160.556 112.521 161.13C112.668 161.704 112.697 162.302 112.606 162.888L109.569 182.706ZM111.29 116.495C96.8154 114.256 86.8128 100.982 88.994 86.8949C89.0693 86.4086 89.1422 85.938 89.2712 85.468C89.2906 85.3425 89.3113 85.2091 89.3307 85.0836C92.3584 72.6372 104.431 64.2403 117.561 65.5164C118.32 65.5849 119.05 65.8495 119.677 66.2844C120.303 66.7193 120.807 67.3094 121.137 67.9972C122.314 70.5085 123.266 70.3826 123.676 70.3256C124.107 70.2964 124.528 70.1782 124.911 69.9785C125.628 69.4425 126.494 69.1406 127.389 69.1138C128.284 69.0871 129.166 69.3367 129.915 69.8289C134.071 72.5278 137.365 76.3614 139.409 80.8753C141.452 85.3893 142.158 90.3944 141.443 95.2974C141.373 95.7524 141.302 96.2073 141.185 96.655C141.156 96.7853 141.12 96.9138 141.077 97.0399C137.948 110.089 124.925 118.604 111.29 116.495ZM97.727 87.6675C97.6966 87.8636 97.665 88.0675 97.6334 88.2715C96.1894 97.5977 102.915 106.405 112.635 107.908C121.862 109.335 130.652 103.612 132.64 94.8753C132.653 94.7891 132.668 94.6949 132.681 94.6087C132.713 94.4047 132.743 94.2086 132.772 94.0204C133.198 91.16 132.889 88.2384 131.875 85.5301C130.861 82.8219 129.175 80.4159 126.975 78.5383C126.26 78.7474 125.53 78.9029 124.791 79.0035C120.693 79.5262 117.117 77.7683 114.597 74.1256C106.579 74.2829 99.5663 79.6795 97.8081 87.3508C97.7845 87.4515 97.7633 87.5366 97.727 87.6675Z" fill="#724D38"/>
<path d="M97.1717 152.586L86.7142 150.969L83.4437 172.091C78.6796 171.732 74.6421 173.942 74.115 177.347C73.5527 180.978 77.3011 184.578 82.5102 185.384C87.7193 186.189 92.3809 183.891 92.9432 180.259C92.9804 180.012 92.9976 179.762 92.9946 179.512L93.0574 179.522L97.1717 152.586Z" fill="#FFF5D8"/>
<path d="M109.589 155.464L120.047 157.082L116.776 178.204C121.426 179.301 124.606 182.628 124.079 186.032C123.515 189.672 118.855 191.963 113.646 191.157C108.437 190.351 104.687 186.759 105.251 183.12C105.29 182.873 105.349 182.629 105.428 182.392L105.365 182.382L109.589 155.464Z" fill="#FFF5D8"/>
<path d="M31.8802 110.111L51.6812 100.83L47.1053 88.8776L27.3079 98.1356C26.3315 97.4554 25.1956 97.0393 24.0108 96.9278C22.8259 96.8163 21.6324 97.0131 20.5461 97.4992C16.5179 99.3899 14.8316 105.04 16.7752 110.128C18.7187 115.215 23.5545 117.811 27.5815 115.928C28.6951 115.351 29.6617 114.527 30.4069 113.519C31.1521 112.511 31.6561 111.345 31.8802 110.111Z" fill="#FFF5D8"/>
<path d="M178.682 142.759L166.774 123.891L176.827 116.346L188.731 135.238C189.929 135.224 191.11 135.514 192.165 136.082C193.22 136.65 194.112 137.476 194.76 138.484C197.178 142.32 195.691 148.033 191.403 151.241C187.114 154.449 181.717 153.927 179.298 150.091C178.656 148.992 178.267 147.763 178.161 146.495C178.054 145.227 178.232 143.95 178.682 142.759Z" fill="#FFF5D8"/>
<path d="M151.578 90.6071C144.65 89.5354 141.211 92.9149 137.163 95.5014C134.67 106.416 123.834 113.672 112.231 111.877C100.102 110 91.7662 98.9844 93.5819 87.2577C93.6596 86.7557 93.7361 86.2616 93.8675 85.7759C89.7964 88.3588 86.3613 91.763 79.4495 90.6938C67.6814 88.8734 69.3817 77.8919 57.6607 76.0787C50.1134 74.9112 46.7114 79.0354 42.1224 81.6426C37.4831 119.855 65.005 155.292 104.585 161.415C144.965 167.661 182.602 141.043 188.652 101.964C188.774 101.18 188.895 100.396 189.009 99.6583C184.411 102.272 181.008 106.404 173.445 105.234C161.622 103.405 163.322 92.4239 151.578 90.6071Z" fill="#F9C574"/>
<path d="M126.408 20.1986C86.0357 13.9533 48.3927 40.5625 42.3408 79.6487C42.2193 80.4331 42.104 81.1783 42.0332 81.9464C46.6223 79.3392 50.0243 75.215 57.5716 76.3825C69.3396 78.203 67.6393 89.1844 79.3603 90.9976C86.3035 92.0717 89.7387 88.6675 93.7784 86.0797C96.2706 75.1725 107.113 67.9264 118.708 69.7202C130.822 71.594 139.203 82.6251 137.388 94.3518C137.311 94.8459 137.236 95.3323 137.098 95.8089C141.161 93.2247 144.6 89.8453 151.512 90.9145C163.28 92.7349 161.58 103.716 173.301 105.53C180.864 106.699 184.268 102.56 188.865 99.9536C193.503 61.7491 165.988 26.3213 126.408 20.1986Z" fill="#B36B2D"/>
<path d="M90.671 51.616C90.2786 51.5551 89.9141 51.376 89.6262 51.1026C89.3382 50.8293 89.1404 50.4747 89.0592 50.0861C88.978 49.6974 89.0172 49.2933 89.1717 48.9275C89.3261 48.5618 89.5883 48.2517 89.9235 48.0388L96.2495 44.0699L90.8966 39.5233C90.4964 39.1909 90.2447 38.7131 90.1968 38.1951C90.149 37.6771 90.3089 37.1613 90.6414 36.7611C90.974 36.361 91.4518 36.1093 91.97 36.0614C92.4881 36.0135 93.004 36.1734 93.4042 36.5058L100.774 42.7619C101.006 42.9603 101.189 43.2106 101.307 43.4925C101.426 43.7745 101.476 44.0802 101.454 44.3852C101.429 44.6823 101.335 44.9695 101.18 45.2242C101.025 45.4789 100.813 45.6942 100.56 45.8532L92.0311 51.2883C91.6331 51.5603 91.1492 51.6769 90.671 51.616Z" fill="#724D38"/>
<path d="M153.347 53.0728C153.128 55.1565 152.097 57.0704 150.478 58.401C148.86 59.7315 146.782 60.3718 144.695 60.1836C143.668 60.092 142.67 59.7972 141.758 59.3163C140.847 58.8353 140.04 58.1779 139.385 57.3822C138.73 56.5865 138.239 55.6684 137.943 54.6815C137.646 53.6945 137.549 52.6584 137.656 51.6334C137.875 49.5497 138.906 47.6358 140.525 46.3052C142.144 44.9747 144.221 44.3344 146.308 44.5226C147.334 44.6162 148.331 44.9124 149.242 45.394C150.153 45.8756 150.959 46.5331 151.613 47.3283C152.268 48.1235 152.758 49.0408 153.056 50.0268C153.354 51.0129 153.452 52.0482 153.347 53.0728Z" fill="#724D38"/>
<path d="M115.214 64.5764C112.694 64.2357 110.275 63.3603 108.121 62.009C105.967 60.6577 104.126 58.8616 102.723 56.741C102.448 56.3013 102.359 55.7703 102.476 55.265C102.592 54.7596 102.905 54.3213 103.345 54.0464C103.785 53.7715 104.316 53.6826 104.821 53.7992C105.327 53.9158 105.765 54.2284 106.04 54.6682C108.177 58.0908 112.199 60.3915 116.75 60.8305C121.301 61.2695 125.751 59.7733 128.491 56.808C128.846 56.4305 129.336 56.2092 129.854 56.1929C130.371 56.1767 130.874 56.3666 131.252 56.7211C131.63 57.0756 131.851 57.5656 131.867 58.0832C131.883 58.6008 131.693 59.1037 131.339 59.4812C127.74 63.3176 122.149 65.2878 116.38 64.7246C115.993 64.6808 115.599 64.6358 115.214 64.5764Z" fill="#724D38"/>
<path d="M115.999 64.9634C115.999 64.9634 117.615 75.2771 124.495 74.3736C131.375 73.4701 130.299 67.2398 125.759 61.5901" fill="#EA5249"/>
<path d="M122.47 76.2932C117.096 75.4619 114.637 68.9854 114.065 65.2587C114.019 64.7618 114.165 64.2663 114.472 63.873C114.779 63.4797 115.225 63.2183 115.718 63.142C116.211 63.0657 116.715 63.1803 117.126 63.4624C117.538 63.7445 117.826 64.1729 117.933 64.6603C117.92 64.7466 119.313 73.0741 124.24 72.4387C125.88 72.2186 126.93 71.6662 127.285 70.7734C127.963 69.0952 126.768 65.9707 124.236 62.8162C123.912 62.4114 123.762 61.8945 123.819 61.3792C123.876 60.8639 124.136 60.3923 124.54 60.0684C124.945 59.7444 125.462 59.5945 125.978 59.6516C126.493 59.7087 126.965 59.9683 127.289 60.373C130.845 64.8023 132.162 69.1585 130.915 72.2344C130.277 73.8143 128.692 75.8019 124.74 76.315C123.986 76.4133 123.222 76.406 122.47 76.2932Z" fill="#724D38"/>
<path d="M66.4166 108.13C66.1109 108.279 65.7788 108.367 65.4392 108.387C65.0997 108.408 64.7594 108.362 64.4379 108.251C64.1163 108.14 63.8198 107.967 63.5653 107.741C63.3107 107.515 63.1032 107.242 62.9545 106.936L57.9075 96.5736C57.7584 96.268 57.671 95.9359 57.6504 95.5965C57.6297 95.257 57.6762 94.9168 57.7871 94.5953C57.8981 94.2738 58.0714 93.9773 58.297 93.7228C58.5226 93.4683 58.7963 93.2608 59.1022 93.1121C59.4079 92.963 59.74 92.8756 60.0796 92.8549C60.4191 92.8343 60.7594 92.8807 61.0809 92.9916C61.4025 93.1025 61.699 93.2757 61.9535 93.5013C62.2081 93.7269 62.4156 94.0004 62.5643 94.3063L67.5841 104.688C67.8809 105.3 67.9249 106.005 67.7064 106.649C67.4879 107.293 67.0245 107.825 66.4166 108.13Z" fill="#AA693D"/>
<path d="M80.6701 122.029C80.38 121.852 80.1277 121.62 79.9276 121.346C79.7275 121.071 79.5835 120.76 79.5041 120.43C79.4246 120.1 79.4111 119.757 79.4644 119.422C79.5176 119.086 79.6367 118.765 79.8146 118.475L85.8207 108.634C86.1796 108.048 86.7563 107.628 87.4243 107.467C88.0923 107.305 88.7972 107.415 89.3844 107.772C89.6746 107.949 89.927 108.182 90.127 108.458C90.3271 108.733 90.4709 109.045 90.5503 109.376C90.6296 109.706 90.643 110.05 90.5895 110.386C90.536 110.722 90.4168 111.044 90.2387 111.334L84.2325 121.175C84.0549 121.465 83.8218 121.717 83.5466 121.917C83.2713 122.117 82.9594 122.261 82.6285 122.34C82.2976 122.42 81.9543 122.433 81.6182 122.38C81.2822 122.326 80.96 122.207 80.6701 122.029Z" fill="#FAA343"/>
<path d="M165.901 128.646C165.215 128.68 164.544 128.441 164.034 127.982C163.524 127.522 163.217 126.879 163.18 126.193L162.554 114.676C162.536 114.336 162.585 113.996 162.699 113.675C162.812 113.355 162.988 113.059 163.216 112.807C163.444 112.554 163.719 112.349 164.027 112.203C164.334 112.056 164.667 111.972 165.007 111.955C165.347 111.937 165.687 111.986 166.008 112.1C166.329 112.214 166.624 112.389 166.877 112.617C167.129 112.845 167.335 113.121 167.481 113.428C167.627 113.735 167.711 114.068 167.728 114.408L168.356 125.918C168.392 126.605 168.154 127.279 167.693 127.79C167.233 128.302 166.588 128.61 165.901 128.646Z" fill="#FAA343"/>
<path d="M129.459 152.74C128.925 152.308 128.584 151.683 128.51 151C128.437 150.317 128.637 149.633 129.067 149.097L136.29 140.111C136.504 139.846 136.767 139.625 137.066 139.462C137.365 139.299 137.692 139.196 138.031 139.159C138.369 139.123 138.712 139.154 139.038 139.25C139.365 139.346 139.669 139.505 139.934 139.719C140.199 139.931 140.42 140.194 140.583 140.492C140.746 140.79 140.849 141.117 140.886 141.455C140.922 141.792 140.892 142.134 140.796 142.46C140.7 142.786 140.541 143.09 140.327 143.354L133.104 152.34C132.673 152.876 132.047 153.218 131.364 153.293C130.681 153.368 129.996 153.169 129.459 152.74Z" fill="#AA693D"/>
<path d="M131.034 121.911C130.839 121.252 130.913 120.543 131.24 119.938C131.567 119.334 132.12 118.884 132.778 118.687L143.85 115.404C144.177 115.308 144.518 115.277 144.856 115.312C145.195 115.348 145.522 115.45 145.821 115.613C146.12 115.775 146.383 115.995 146.597 116.26C146.81 116.524 146.97 116.828 147.066 117.154C147.261 117.812 147.187 118.52 146.86 119.123C146.533 119.726 145.98 120.175 145.323 120.37L134.266 123.656C133.94 123.756 133.596 123.79 133.256 123.756C132.916 123.722 132.586 123.621 132.285 123.459C131.984 123.297 131.719 123.076 131.504 122.81C131.289 122.545 131.13 122.239 131.034 121.911Z" fill="#F4F095"/>
<path d="M113.627 140.637C113.021 140.958 112.312 141.025 111.656 140.825C111.001 140.624 110.451 140.171 110.129 139.565L104.733 129.382C104.413 128.775 104.347 128.066 104.549 127.411C104.752 126.756 105.206 126.207 105.813 125.887C106.113 125.727 106.441 125.627 106.779 125.594C107.118 125.562 107.459 125.596 107.784 125.695C108.109 125.795 108.411 125.958 108.673 126.174C108.935 126.391 109.151 126.657 109.31 126.958L114.714 137.142C114.873 137.443 114.971 137.772 115.003 138.111C115.034 138.449 114.998 138.791 114.897 139.116C114.796 139.44 114.632 139.742 114.414 140.003C114.196 140.264 113.928 140.479 113.627 140.637Z" fill="#F0587B"/>
<path d="M84.8451 141.452C84.5768 142.082 84.0703 142.581 83.4359 142.839C82.8015 143.098 82.0907 143.095 81.4584 142.832L70.8354 138.337C70.5177 138.205 70.2294 138.012 69.9876 137.767C69.7458 137.523 69.5553 137.233 69.4274 136.913C69.2994 136.594 69.2365 136.253 69.2424 135.909C69.2484 135.565 69.323 135.226 69.4618 134.912C69.5942 134.595 69.7884 134.307 70.0331 134.066C70.2778 133.825 70.568 133.635 70.8869 133.507C71.2058 133.379 71.547 133.316 71.8905 133.321C72.2341 133.327 72.5731 133.4 72.8878 133.538L83.512 138.025C83.8257 138.161 84.1093 138.358 84.3464 138.604C84.5835 138.851 84.7694 139.142 84.8934 139.46C85.0174 139.779 85.0769 140.119 85.0686 140.461C85.0604 140.803 84.9844 141.14 84.8451 141.452Z" fill="#F4EA97"/>
<path d="M170.482 54.6323L161.921 40.811L174.612 32.574L183.172 46.3953L170.482 54.6323Z" fill="#B36B2D" stroke="white" stroke-width="2" stroke-linecap="round" stroke-linejoin="round"/>
<path d="M170.574 54.4054L168.909 61.6815L188.222 48.8067L183.075 46.4042L170.574 54.4054Z" fill="#B36B2D"/>
<path d="M168.787 62.4658C168.668 62.4478 168.554 62.4027 168.454 62.334C168.32 62.2416 168.218 62.1104 168.161 61.9579C168.104 61.8054 168.096 61.6392 168.136 61.4817L169.801 54.2056C169.848 54.002 169.974 53.8251 170.151 53.7135L182.636 45.7098C182.748 45.639 182.875 45.5972 183.007 45.5882C183.139 45.5791 183.271 45.6031 183.391 45.658L188.546 48.0617C188.674 48.1222 188.783 48.2157 188.862 48.3325C188.941 48.4492 188.988 48.585 188.998 48.7259C189.013 48.8713 188.987 49.0181 188.924 49.1501C188.862 49.2821 188.763 49.3941 188.641 49.4738L169.345 62.3432C169.18 62.4517 168.982 62.4954 168.787 62.4658ZM171.276 54.8996L170.115 59.9084L186.597 48.9247L183.127 47.3118L171.276 54.8996Z" fill="#724D38"/>
<path d="M162.013 40.5837L170.573 54.4049L168.908 61.681L155.554 39.3435L162.013 40.5837Z" fill="#B36B2D"/>
<path d="M168.786 62.4654C168.671 62.4477 168.561 62.4049 168.464 62.3399C168.367 62.275 168.286 62.1895 168.226 62.0895L154.871 39.7521C154.792 39.6208 154.753 39.4694 154.758 39.3163C154.763 39.1632 154.813 39.0149 154.9 38.8892C154.989 38.7626 155.112 38.6644 155.255 38.6067C155.398 38.5489 155.555 38.5341 155.706 38.564L162.165 39.8042C162.273 39.8253 162.374 39.8683 162.464 39.9306C162.554 39.9929 162.63 40.073 162.688 40.1661L171.248 53.9873C171.358 54.1644 171.394 54.3777 171.349 54.5812L169.676 61.8561C169.641 62.0102 169.56 62.1503 169.445 62.2583C169.329 62.3664 169.184 62.4375 169.028 62.4626C168.948 62.4758 168.867 62.4767 168.786 62.4654ZM157.148 40.4576L168.56 59.5711L169.708 54.5442L161.521 41.3189L157.148 40.4576Z" fill="#724D38"/>
<path d="M174.612 32.574L162.186 40.7636L155.553 39.3441L175.411 27.4611L174.612 32.574Z" fill="#B36B2D"/>
<path d="M162.064 41.548L162.024 41.542L155.391 40.1303C155.239 40.0917 155.102 40.009 154.997 39.8928C154.892 39.7765 154.824 39.6318 154.801 39.4768C154.774 39.3186 154.795 39.1558 154.862 39.0098C154.929 38.8639 155.039 38.7418 155.177 38.6595L175.01 26.7807C175.139 26.7033 175.287 26.6639 175.437 26.6672C175.588 26.6706 175.734 26.7165 175.859 26.7996C175.985 26.8836 176.085 27.0022 176.146 27.1412C176.207 27.2802 176.227 27.4338 176.203 27.5837L175.412 32.6979C175.395 32.8069 175.357 32.9113 175.298 33.0045C175.239 33.0978 175.162 33.1778 175.071 33.2395L162.637 41.4278C162.468 41.5394 162.263 41.5824 162.064 41.548ZM157.696 38.9929L162.028 39.9121L173.888 32.1088L174.368 29.0105L157.696 38.9929Z" fill="#724D38"/>
<path d="M183.173 46.3959L174.612 32.5746L175.412 27.4618L188.222 48.8073L183.173 46.3959Z" fill="#B36B2D"/>
<path d="M188.102 49.5838C188.024 49.5841 187.948 49.5723 187.874 49.5486L182.821 47.1607C182.685 47.0967 182.57 46.9953 182.489 46.8683L173.937 32.9922C173.841 32.8273 173.803 32.6346 173.829 32.4454L174.62 27.3391C174.646 27.1797 174.721 27.0321 174.833 26.916C174.946 26.7999 175.091 26.721 175.249 26.6896C175.408 26.6583 175.572 26.676 175.72 26.7406C175.869 26.8051 175.993 26.9133 176.078 27.0507L188.889 48.3884C188.978 48.5359 189.016 48.7081 188.998 48.8791C188.98 49.0502 188.907 49.2109 188.79 49.337C188.704 49.4303 188.596 49.5015 188.476 49.5445C188.356 49.5874 188.228 49.6009 188.102 49.5838ZM183.727 45.7747L186.179 46.9572L175.862 29.7479L175.45 32.4069L183.727 45.7747Z" fill="#724D38"/>
<path d="M174.492 42.5869C174.963 42.5511 175.433 42.6629 175.837 42.9068C176.242 43.1507 176.56 43.5146 176.747 43.9478C177.374 45.0888 177.232 46.368 175.926 46.9691C174.62 47.5703 170.637 46.3678 168.347 45.3871C168.826 43.1239 170.145 39.5852 171.857 38.798C172.404 38.5968 173.007 38.6141 173.541 38.8463C174.075 39.0786 174.499 39.5078 174.725 40.0448C174.971 40.4191 175.086 40.8646 175.052 41.3113C175.017 41.7581 174.836 42.1808 174.536 42.5133L174.492 42.5869Z" fill="#E83D69"/>
</svg>
