<svg width="50" height="50" viewBox="0 0 50 50" fill="none" xmlns="http://www.w3.org/2000/svg">
<circle cx="25" cy="25" r="25" fill="white"/>
<path d="M14.3138 34.5681C14.1703 34.5674 14.0286 34.5364 13.898 34.4769C13.7674 34.4175 13.6508 34.3311 13.5561 34.2234C13.3676 34.0125 13.2683 33.7369 13.2789 33.4543C13.2895 33.1718 13.4092 32.9044 13.6129 32.7082L15.7745 30.6438L13.6584 28.8484C13.4423 28.6638 13.3067 28.4024 13.2802 28.1196C13.2536 27.8368 13.3383 27.5547 13.5163 27.3332C13.6006 27.2252 13.7059 27.1354 13.8259 27.0693C13.9459 27.0032 14.0781 26.962 14.2144 26.9484C14.3508 26.9348 14.4885 26.9489 14.6192 26.99C14.7499 27.0311 14.871 27.0982 14.975 27.1874L18.0061 29.7613C18.1217 29.8593 18.2152 29.9807 18.2806 30.1175C18.3459 30.2543 18.3815 30.4033 18.385 30.5548C18.3902 30.7068 18.3633 30.8582 18.3062 30.9991C18.2491 31.1401 18.163 31.2675 18.0535 31.373L15.0224 34.2688C14.8349 34.4581 14.5803 34.5657 14.3138 34.5681Z" fill="#724C38"/>
<path d="M32.455 36.3502C34.0579 36.3502 35.3573 34.7306 35.3573 32.7328C35.3573 30.7349 34.0579 29.1154 32.455 29.1154C30.8521 29.1154 29.5527 30.7349 29.5527 32.7328C29.5527 34.7306 30.8521 36.3502 32.455 36.3502Z" fill="#724C38"/>
<path d="M24.7842 39.3976C24.7842 39.3976 25.7712 44.106 28.3609 43.3844C30.9506 42.6628 30.2932 39.8219 28.3609 37.4033" fill="#E73D68"/>
<path d="M27.8342 44.5283C27.2966 44.5273 26.7707 44.3721 26.3186 44.0814C24.5094 42.945 23.8388 39.9602 23.7687 39.623C23.7078 39.3495 23.7569 39.0629 23.9054 38.8252C24.0538 38.5874 24.2898 38.4176 24.5625 38.3522C24.6972 38.3235 24.8362 38.322 24.9715 38.3476C25.1068 38.3733 25.2356 38.4256 25.3504 38.5016C25.4653 38.5776 25.5638 38.6757 25.6403 38.7902C25.7167 38.9047 25.7696 39.0333 25.7958 39.1685C25.9852 40.0984 26.6028 41.7575 27.3985 42.2556C27.4987 42.3234 27.6132 42.3672 27.7331 42.3837C27.8531 42.4001 27.9751 42.3887 28.0899 42.3503C28.8231 42.1477 28.933 41.7916 28.9747 41.6571C29.1736 41.0113 28.8136 39.6552 27.5595 38.0852C27.3818 37.8637 27.2971 37.5819 27.3232 37.2992C27.3494 37.0166 27.4844 36.7551 27.6997 36.57C27.804 36.481 27.9252 36.4141 28.056 36.3731C28.1869 36.3322 28.3247 36.3181 28.4611 36.3317C28.5975 36.3453 28.7298 36.3864 28.8499 36.4524C28.9701 36.5184 29.0757 36.608 29.1603 36.7158C30.7725 38.7329 31.4242 40.7689 30.9506 42.3011C30.7251 43.0302 30.1378 43.9886 28.6299 44.409C28.3714 44.4854 28.1037 44.5255 27.8342 44.5283Z" fill="#724C38"/>
<path d="M23.9643 40.1722C21.7686 40.1722 19.751 38.9507 18.5632 36.9014C18.422 36.6581 18.3804 36.3697 18.4471 36.0964C18.5139 35.8232 18.6838 35.5863 18.9213 35.4355C19.0382 35.3636 19.1684 35.3161 19.3042 35.2958C19.44 35.2754 19.5784 35.2827 19.7113 35.3172C19.8442 35.3517 19.9687 35.4127 20.0774 35.4965C20.1861 35.5803 20.2768 35.6851 20.344 35.8048C21.1529 37.2007 22.5056 38.0321 23.9643 38.0321C25.423 38.0321 26.7757 37.1988 27.5827 35.8048C27.6493 35.6845 27.7394 35.579 27.8478 35.4944C27.9562 35.4098 28.0805 35.348 28.2134 35.3126C28.3463 35.2772 28.4849 35.269 28.621 35.2885C28.7571 35.308 28.8878 35.3548 29.0054 35.426C29.2434 35.5769 29.4137 35.8141 29.4805 36.0878C29.5472 36.3615 29.5053 36.6504 29.3635 36.8938C28.1776 38.9507 26.1581 40.1722 23.9643 40.1722Z" fill="#724C38"/>
<path d="M10 10.4127L11.9153 10.2233L12.3662 14.7498L17.3296 14.2555L16.8788 9.72711L18.7997 9.53772L19.8644 20.1987L17.9415 20.3881L17.4888 15.8521L12.5272 16.3483L12.9875 20.8805L11.0742 21.0699L10 10.4127Z" fill="#F774A4"/>
<path d="M30.4521 18.3634C30.0115 19.1264 29.3586 19.7449 28.5728 20.1437C27.7722 20.5225 26.8876 20.6889 26.004 20.6269C25.1204 20.5648 24.2677 20.2765 23.5279 19.7896C22.8055 19.2829 22.2455 18.5776 21.9157 17.7593C21.5388 16.8188 21.3914 15.8021 21.4857 14.7934C21.5313 13.7755 21.8197 12.7833 22.3268 11.8994C22.7692 11.1392 23.4218 10.523 24.2061 10.1248C25.0074 9.7483 25.8918 9.58334 26.775 9.64567C27.6582 9.70801 28.5106 9.99555 29.251 10.4809C29.9737 10.983 30.5345 11.6845 30.8651 12.4998C31.2408 13.4459 31.3862 14.4676 31.2895 15.4809C31.242 16.4944 30.9551 17.4822 30.4521 18.3634ZM29.126 13.2744C28.9511 12.7389 28.6215 12.267 28.1788 11.9184C27.7294 11.6006 27.2014 11.412 26.6523 11.3733C26.1031 11.3346 25.5539 11.4471 25.0643 11.6987C24.5733 11.9799 24.1775 12.4013 23.9276 12.9089C23.616 13.5386 23.4386 14.2261 23.4067 14.9278C23.3399 15.6263 23.4179 16.331 23.6359 16.9979C23.8129 17.536 24.1467 18.0089 24.5945 18.3559C25.0442 18.6729 25.5721 18.8609 26.1211 18.8997C26.67 18.9384 27.2191 18.8263 27.709 18.5756C28.1998 18.2933 28.5956 17.8714 28.8456 17.3634C29.1551 16.7339 29.3312 16.0472 29.3628 15.3464C29.4295 14.6473 29.3515 13.942 29.1336 13.2744H29.126Z" fill="#F774A4"/>
<path d="M33.6521 10.4812L41.9877 12.3884L41.6259 13.9679L38.4053 13.2293L36.3744 22.0929L34.5065 21.6649L36.5374 12.8013L33.2979 12.0607L33.6521 10.4812Z" fill="#F774A4"/>
</svg>
