<svg width="50" height="50" viewBox="0 0 50 50" fill="none" xmlns="http://www.w3.org/2000/svg">
<circle cx="25" cy="24.5375" r="25" fill="white"/>
<path d="M13.0622 35.517C12.8886 35.516 12.7173 35.4785 12.5592 35.4072C12.4011 35.3359 12.2597 35.2323 12.1444 35.103C11.9172 34.8479 11.7976 34.5152 11.8104 34.1743C11.8232 33.8334 11.9675 33.5106 12.2132 33.2731L14.8313 30.7821L12.2637 28.6136C12.002 28.3907 11.8377 28.075 11.8056 27.7334C11.7735 27.3918 11.876 27.0511 12.0916 26.7837C12.1939 26.6532 12.3217 26.5447 12.4672 26.4648C12.6128 26.3848 12.7731 26.3352 12.9384 26.3187C13.1037 26.3022 13.2707 26.3193 13.4292 26.369C13.5877 26.4186 13.7345 26.4998 13.8607 26.6075L17.5321 29.7161C17.6714 29.8357 17.7841 29.983 17.8631 30.1485C17.9421 30.314 17.9855 30.4941 17.9907 30.6773C17.9959 30.8605 17.9627 31.0428 17.8932 31.2125C17.8237 31.3821 17.7195 31.5355 17.5871 31.6627L13.9158 35.1625C13.6878 35.3861 13.382 35.5131 13.0622 35.517Z" fill="#724C38"/>
<path d="M35.0476 37.6718C36.989 37.6718 38.5629 35.7157 38.5629 33.3028C38.5629 30.8899 36.989 28.9338 35.0476 28.9338C33.1061 28.9338 31.5322 30.8899 31.5322 33.3028C31.5322 35.7157 33.1061 37.6718 35.0476 37.6718Z" fill="#724C38"/>
<path d="M25.7559 41.3499C25.7559 41.3499 26.9514 47.0365 30.0904 46.1535C33.2294 45.2706 32.4309 41.8509 30.0904 38.9321" fill="#E73D68"/>
<path d="M29.4508 47.5465C28.8001 47.5449 28.1633 47.3584 27.6151 47.009C25.4238 45.6365 24.6115 42.0293 24.5266 41.6221C24.4534 41.2917 24.5131 40.9459 24.6929 40.659C24.8726 40.372 25.1581 40.1667 25.488 40.0872C25.6513 40.0523 25.82 40.0503 25.9841 40.0813C26.1483 40.1123 26.3045 40.1756 26.4437 40.2677C26.5829 40.3598 26.7022 40.4787 26.7946 40.6174C26.887 40.7561 26.9506 40.9118 26.9818 41.0754C27.2113 42.1963 27.9593 44.2 28.923 44.8016C29.0443 44.8839 29.1829 44.9372 29.3281 44.9575C29.4734 44.9777 29.6214 44.9643 29.7606 44.9183C30.6486 44.6712 30.7817 44.2321 30.8321 44.0811C31.0754 43.2988 30.6394 41.661 29.1181 39.7647C28.9063 39.498 28.8058 39.1602 28.8374 38.8215C28.869 38.4829 29.0304 38.1694 29.2879 37.9462C29.4139 37.8383 29.5606 37.757 29.719 37.7072C29.8775 37.6574 30.0444 37.6401 30.2097 37.6563C30.375 37.6726 30.5354 37.722 30.681 37.8017C30.8266 37.8814 30.9545 37.9897 31.057 38.1201C33.0097 40.5562 33.8105 43.0152 33.2254 44.8657C32.9524 45.7486 32.2433 46.9061 30.4145 47.4139C30.1008 47.5012 29.7766 47.5458 29.4508 47.5465Z" fill="#724C38"/>
<path d="M24.7625 42.2878C22.1054 42.2878 19.6593 40.8102 18.2206 38.3374C18.0491 38.0431 17.9986 37.694 18.0799 37.3634C18.1612 37.0328 18.3679 36.7465 18.6566 36.5647C18.7988 36.4784 18.957 36.4217 19.1217 36.398C19.2865 36.3743 19.4543 36.3841 19.6151 36.4269C19.776 36.4696 19.9264 36.5444 20.0575 36.6467C20.1885 36.749 20.2974 36.8768 20.3776 37.0222C21.3574 38.708 22.9957 39.7145 24.7625 39.7145C26.5294 39.7145 28.1677 38.708 29.1475 37.0222C29.2277 36.8768 29.3366 36.749 29.4676 36.6467C29.5986 36.5444 29.7491 36.4696 29.9099 36.4269C30.0708 36.3841 30.2386 36.3743 30.4034 36.398C30.5681 36.4217 30.7263 36.4784 30.8685 36.5647C31.1571 36.7465 31.3638 37.0328 31.4451 37.3634C31.5265 37.694 31.476 38.0431 31.3045 38.3374C29.8657 40.8102 27.422 42.2878 24.7625 42.2878Z" fill="#724C38"/>
<path d="M15.309 20.5117L13.3563 20.777L11.5986 7.96745L13.5605 7.69067L15.309 20.5117Z" fill="#BEE1F0"/>
<path d="M25.4674 9.78116C25.1392 9.40007 24.7225 9.10479 24.2535 8.92109C23.7621 8.72907 23.2369 8.63804 22.7093 8.65346C21.9994 8.66078 21.3072 8.87465 20.7176 9.26878C20.111 9.69101 19.6407 10.2799 19.3637 10.9638C19.0257 11.7996 18.8745 12.6989 18.9209 13.5989C18.9163 14.5036 19.1106 15.3984 19.4899 16.2203C19.799 16.8875 20.2966 17.4503 20.9218 17.8398C21.5281 18.2026 22.2274 18.3814 22.9341 18.3544C23.4579 18.3482 23.9745 18.2329 24.4509 18.0159C24.9062 17.8044 25.3066 17.4914 25.6211 17.1009C25.9439 16.6986 26.158 16.2206 26.243 15.7125L28.2232 15.6759C28.1152 16.4925 27.8123 17.2715 27.3398 17.9473C26.8701 18.6206 26.2391 19.1663 25.5041 19.5347C24.7172 19.9305 23.8498 20.141 22.9686 20.1501C21.9078 20.1949 20.8558 19.9413 19.9328 19.4181C19.0213 18.8831 18.2836 18.0977 17.808 17.1558C17.2617 16.0654 16.9766 14.8635 16.9751 13.6446C16.9155 12.4225 17.1442 11.2035 17.6428 10.0854C18.0765 9.12401 18.7772 8.30646 19.662 7.72934C20.5548 7.16557 21.5883 6.86283 22.645 6.85555C23.5098 6.82244 24.3713 6.9786 25.1691 7.31303C25.9279 7.63405 26.5921 8.14263 27.0988 8.79071C27.6241 9.47439 27.9724 10.2765 28.1131 11.1262L26.1328 11.1742C26.0338 10.6609 25.8047 10.1814 25.4674 9.78116Z" fill="#BEE1F0"/>
<path d="M31.5666 7.21252L39.6505 8.22357L39.4394 9.89796L33.3128 9.13167L32.8217 13.034L38.5215 13.7454L38.3127 15.4129L32.606 14.6993L32.1196 18.6176L38.315 19.3931L38.097 21.0652L29.9512 20.0473L31.5666 7.21252Z" fill="#BEE1F0"/>
</svg>
